<?xml version="1.0" encoding="utf-8"?>
<!-- Generator: Adobe Illustrator 18.1.1, SVG Export Plug-In . SVG Version: 6.00 Build 0)  -->
<!DOCTYPE svg PUBLIC "-//W3C//DTD SVG 1.1//EN" "http://www.w3.org/Graphics/SVG/1.1/DTD/svg11.dtd">
<svg version="1.1" id="Layer_1" xmlns="http://www.w3.org/2000/svg" xmlns:xlink="http://www.w3.org/1999/xlink" x="0px" y="0px"
	 viewBox="0 0 32 32" enable-background="new 0 0 32 32" xml:space="preserve">
<g>
	<circle fill="#FFFFFF" cx="16" cy="16" r="14.8"/>
	<path fill="#B3B3B3" d="M16,31.3C7.6,31.3,0.7,24.4,0.7,16C0.7,7.6,7.6,0.7,16,0.7c8.4,0,15.3,6.9,15.3,15.3
		C31.3,24.4,24.4,31.3,16,31.3z M16,1.7C8.1,1.7,1.7,8.1,1.7,16S8.1,30.3,16,30.3S30.3,23.9,30.3,16S23.9,1.7,16,1.7z"/>
</g>
<g>
	<path fill="#999999" d="M12.1,10l1.5-1.7l9.1,7.6l-9,7.7l-1.5-1.8l7.2-5.9L12.1,10z"/>
</g>
</svg>
