<?xml version="1.0" encoding="utf-8"?>
<!-- Generator : Adobe Illustrator 18.1.1, SVG Export Plug-In . SVG Version: 6.00 Build 0)  -->
<!DOCTYPE svg PUBLIC "-//W3C//DTD SVG 1.1//EN" "http://www.w3.org/Graphics/SVG/1.1/DTD/svg11.dtd">
<svg version="1.1" id="Layer_2" xmlns="http://www.w3.org/2000/svg" xmlns:xlink="http://www.w3.org/1999/xlink" x="0px" y="0px"
	 viewBox="0 0 1280 62" enable-background="new 0 0 1280 62" xml:space="preserve">
<g>
	<defs>
		<rect id="SVGID_1_" y="-0.5" width="1280" height="64"/>
	</defs>
	<clipPath id="SVGID_2_">
		<use xlink:href="#SVGID_1_"  overflow="visible"/>
	</clipPath>
	<path clip-path="url(#SVGID_2_)" fill="#D54E38" d="M399.7,63.9l-40.1-30.6c0,0-58.1,30.3-58.6,30.3
		C300.6,63.6,399.7,63.9,399.7,63.9z"/>
	<polygon clip-path="url(#SVGID_2_)" fill="#A5374A" points="0,63 48.7,60.5 0,27.2 	"/>
	<path clip-path="url(#SVGID_2_)" fill="#AE3B4D" d="M50.3,60.3C50,58.7,55,0,55,0H0l-0.5,27.7L48.2,61L50.3,60.3z"/>
	<polygon clip-path="url(#SVGID_2_)" fill="#AF3A44" points="94.2,55.7 115.6,-0.5 70,-1.5 	"/>
	<polygon clip-path="url(#SVGID_2_)" fill="#B03B48" points="49.7,63 94.2,55.7 70.2,-1.5 54.6,-1 	"/>
	<polygon clip-path="url(#SVGID_2_)" fill="#C54A4C" points="115.6,-0.5 185.9,2.3 192.8,-0.7 	"/>
	<path clip-path="url(#SVGID_2_)" fill="#993439" d="M183.7,51.6c-0.6-0.1-68.1-52.2-68.1-52.2L94.2,55.7L183.7,51.6z"/>
	<polygon clip-path="url(#SVGID_2_)" fill="#903039" points="93,63.5 94.2,55.7 49.8,63 	"/>
	<path clip-path="url(#SVGID_2_)" fill="#9E353D" d="M107.2,63.9c-0.1,0-13-8.2-13-8.2L93,63L107.2,63.9z"/>
	<path clip-path="url(#SVGID_2_)" fill="#BE454D" d="M177.4,63.5l6.3-11.9c0,0-89.5,4.1-89.5,4.1c0,0,13,8.3,13,8.3L177.4,63.5z"/>
	<polygon clip-path="url(#SVGID_2_)" fill="#B83E3E" points="189,63.7 183.7,51.6 177.4,63.6 	"/>
	<path clip-path="url(#SVGID_2_)" fill="#B13B39" d="M207.7,63.8c-0.2,0-23.8-12-23.9-12.2c-0.2-0.2,5.3,12.1,5.3,12.1L207.7,63.8z"
		/>
	<polygon clip-path="url(#SVGID_2_)" fill="#B43D41" points="186.5,1.8 113.3,-0.5 183.7,51.6 	"/>
	<polygon clip-path="url(#SVGID_2_)" fill="#C14544" points="247.2,-0.7 192,-0.5 185.9,2 183.7,51.6 248,25 	"/>
	<polygon clip-path="url(#SVGID_2_)" fill="#CE514F" points="245.6,63.8 248,25 183.7,51.6 207.7,63.9 	"/>
	<polygon clip-path="url(#SVGID_2_)" fill="#CD4D48" points="294,63.8 248,25 245.6,63.8 	"/>
	<polygon clip-path="url(#SVGID_2_)" fill="#B94239" points="304,62.8 282.8,2.8 248,25 294,63.8 	"/>
	<polygon clip-path="url(#SVGID_2_)" fill="#B94239" points="304,62.8 282.8,2.8 248,25 294,63.8 	"/>
	<polygon clip-path="url(#SVGID_2_)" fill="#CC514A" points="282.8,2.8 278.2,-1.4 247.2,-0.7 248,25 282.8,2.8 	"/>
	<polygon clip-path="url(#SVGID_2_)" fill="#CC4C3A" points="359.6,33.3 282.8,2.8 304,62.8 	"/>
	<polygon clip-path="url(#SVGID_2_)" fill="#D95844" points="426.1,-1 292,-0.6 282.8,2.8 359.6,33.3 	"/>
	<polygon clip-path="url(#SVGID_2_)" fill="#E15E3E" points="432,63.6 476.9,7.6 479,5 359.6,33.3 399.7,63.9 	"/>
	<path clip-path="url(#SVGID_2_)" fill="#EA7753" d="M479,5c0,0,7.8-5.7,7.5-5.7s-60.4-0.7-60.4-0.7l-66.5,34.8L479,5L479,5z"/>
	<path clip-path="url(#SVGID_2_)" fill="#E75A39" d="M518.9-0.5c-0.5,0.6-27.5,51.3-27.5,51.3l-5.7,12.3L432,63.6l54.5-64.3
		L518.9-0.5L518.9-0.5z"/>
	<path clip-path="url(#SVGID_2_)" fill="#F99D54" d="M629.2,3.3c-0.2-0.2-7.4-4.3-7.4-4.3L552-1l3.5,11.1L629.2,3.3z"/>
	<polygon clip-path="url(#SVGID_2_)" fill="#F27138" points="614.9,63.6 629.2,3.3 555.6,10.1 586.2,63 	"/>
	<path clip-path="url(#SVGID_2_)" fill="#F78841" d="M667.7,64c0.1,0-38.5-60.7-38.5-60.7l-14.3,60.3C614.9,63.6,667.2,64,667.7,64z
		"/>
	<path clip-path="url(#SVGID_2_)" fill="#F99048" d="M678.4,5.1l-49.3-1.8c0,0,37.8,61.2,38.5,60.7c0.7-0.5,4.5,0,4.5,0L678.4,5.1z"
		/>
	<polygon clip-path="url(#SVGID_2_)" fill="#FA9544" points="700.3,63.7 678.4,5.1 672.2,64 	"/>
	<path clip-path="url(#SVGID_2_)" fill="#F16E30" d="M775.2-0.5c0,0-0.3,0-0.7,0C762.9-0.5,621.8-1,621.8-1l7.4,4.3l49.3,1.8
		L772,7.5l2.9-7.9L775.2-0.5z"/>
	<path clip-path="url(#SVGID_2_)" fill="#F8923E" d="M724.4,64C725.1,64,772,7.5,772,7.5l-93.5-2.2l21.9,58.5L724.4,64h0.4H724.4z"
		/>
	<path clip-path="url(#SVGID_2_)" fill="#F68F37" d="M776.9,63.3c0,0,70.5-53.9,70.8-54c0.2-0.2-75.7-1.8-75.7-1.8L724.4,63
		L776.9,63.3z"/>
	<polygon clip-path="url(#SVGID_2_)" fill="#EB7226" points="841,0 883,0 847.6,9.7 	"/>
	<polygon clip-path="url(#SVGID_2_)" fill="#F2822E" points="774.9,-0.5 841,-1 847.6,9.2 772,7.5 	"/>
	<path clip-path="url(#SVGID_2_)" fill="#F69F3A" d="M847.6,9.2c-0.1,0.2,11.1,54,11.1,54l-81.9,0L847.6,9.2L847.6,9.2z"/>
	<path clip-path="url(#SVGID_2_)" fill="#F49133" d="M906.9-0.7c0,0.2-28,64.2-28,64.2l-20.2-0.2l-11.1-54L886-1.5L906.9-0.7
		L906.9-0.7z"/>
	<polygon clip-path="url(#SVGID_2_)" fill="#F08B2A" points="911,-0.5 906.9,-0.7 878.9,63.5 912.1,63.4 	"/>
	<polygon clip-path="url(#SVGID_2_)" fill="#EB8229" points="953,0 911,0 912,59.4 	"/>
	<polygon clip-path="url(#SVGID_2_)" fill="#E2701F" points="1019.3,8.1 912,59.2 912,59.2 953,0 987,0 	"/>
	<polygon clip-path="url(#SVGID_2_)" fill="#EF8D2B" points="980.5,64 1019.3,8.1 912,59.2 912.1,64 	"/>
	<polygon clip-path="url(#SVGID_2_)" fill="#EB8928" points="1028.2,0 987,0 1019.3,8.3 	"/>
	<polygon clip-path="url(#SVGID_2_)" fill="#DC6C1D" points="1076.3,21.1 1019.3,7.8 980.5,63 992.2,63.3 	"/>
	<polygon clip-path="url(#SVGID_2_)" fill="#E1741F" points="1047.1,63.5 1076.3,21.1 992.2,63.3 	"/>
	<polygon clip-path="url(#SVGID_2_)" fill="#D96A1B" points="1089.7,62.8 1076.3,21.1 1046.8,63 	"/>
	<polygon clip-path="url(#SVGID_2_)" fill="#EC8524" points="1028.2,0 1019.3,8.1 1076.3,21.5 1096.4,0 	"/>
	<polygon clip-path="url(#SVGID_2_)" fill="#E68221" points="1147.4,5.7 1153.9,-0.7 1096.4,-1 1076.3,21.1 	"/>
	<polygon clip-path="url(#SVGID_2_)" fill="#D9721B" points="1100.9,63 1147.4,5.7 1076.3,21.1 1089.7,62.8 	"/>
	<polygon clip-path="url(#SVGID_2_)" fill="#E57E1E" points="1156.8,57.3 1156.8,57.3 1147.4,5.7 1147.4,5.7 1100.9,63 1137.2,62.9 
			"/>
	<path clip-path="url(#SVGID_2_)" fill="#CB5F13" d="M1167.2,63c-0.3,0-10.4-5.7-10.4-5.7l-19.6,5.5L1167.2,63z"/>
	<path clip-path="url(#SVGID_2_)" fill="#E98021" d="M1218.2,31.8c-0.3,0-70.8-26-70.8-26l0,0l9.4,51.6L1218.2,31.8z"/>
	<path clip-path="url(#SVGID_2_)" fill="#D56C16" d="M1215.9,63.1c0.2-1,2.3-31.3,2.3-31.3l-61.4,25.6l10.4,6.2L1215.9,63.1z"/>
	<polygon clip-path="url(#SVGID_2_)" fill="#DA6F18" points="1213,-0.5 1153.9,-0.7 1147.4,5.7 1218.2,31.8 	"/>
	<polygon clip-path="url(#SVGID_2_)" fill="#BE5810" points="1249,0 1213,0 1218.2,31.8 	"/>
	<polygon clip-path="url(#SVGID_2_)" fill="#CE6313" points="1244.6,63 1218.2,31.8 1215.9,63.1 	"/>
	<polygon clip-path="url(#SVGID_2_)" fill="#CC6513" points="1280.2,34.1 1218.2,31.8 1244.6,64 1280,64 	"/>
	<polygon clip-path="url(#SVGID_2_)" fill="#C15C11" points="1280,-1 1249,-1 1218.2,31.8 1280.2,34.1 	"/>
	<polygon clip-path="url(#SVGID_2_)" fill="#932E39" points="43.5,63 50.3,59.8 -0.5,63 	"/>
	<polygon clip-path="url(#SVGID_2_)" fill="#932E39" points="46.8,65.7 51,64 51,59.5 42.9,63 	"/>
	<path clip-path="url(#SVGID_2_)" fill="#F48551" d="M555.6,10.1"/>
	<polygon clip-path="url(#SVGID_2_)" fill="#F3894F" points="491.4,50.8 555.6,10.1 552,-1 517.3,-0.5 	"/>
	<path clip-path="url(#SVGID_2_)" fill="#ED6539" d="M540,63c0,0,15.7-52.9,15.6-52.9c-0.2,0-64.2,40.7-64.2,40.7l-5.7,12.3L540,63z
		"/>
	<polygon clip-path="url(#SVGID_2_)" fill="#F06734" points="586.2,63 555.6,10.1 540,63 	"/>
	<polygon clip-path="url(#SVGID_2_)" fill="#CC4F42" points="292,-0.6 278.2,-1.4 282.8,2.8 	"/>
	<polyline clip-path="url(#SVGID_2_)" fill="#D95844" points="432,63.6 486.5,-0.7 479,5 	"/>
</g>
</svg>
