<?xml version="1.0" encoding="utf-8"?>
<!-- Generator: Adobe Illustrator 18.1.1, SVG Export Plug-In . SVG Version: 6.00 Build 0)  -->
<!DOCTYPE svg PUBLIC "-//W3C//DTD SVG 1.1//EN" "http://www.w3.org/Graphics/SVG/1.1/DTD/svg11.dtd">
<svg version="1.1" id="Layer_1" xmlns="http://www.w3.org/2000/svg" xmlns:xlink="http://www.w3.org/1999/xlink" x="0px" y="0px"
	 viewBox="0 0 37 28" enable-background="new 0 0 37 28" xml:space="preserve">
<path id="binoc" fill="#313131" d="M21.5,19.5c-2.4,1.8-4.1,1.8-6.2,0c0,0.7-0.1,1.3-0.1,2c-0.4,3.8-3.9,6.7-7.7,6.5
	c-4-0.2-7.2-3.3-7.2-7.2c0-1.2,0.3-2.5,0.7-3.6c1.2-3.3,2.6-6.5,3.8-9.7c0.7-1.9,1.9-3.2,4-3.5c0.5-2.4,1.5-3.5,3.4-3.9
	c1.1-0.2,2,0.1,2.9,0.6c0.4,0.2,0.9,0.4,1.3,0.4c0.9,0.1,1.9,0,2.8,0c1.1,0,2.2,0,3.3-0.7c2-1.2,5.3-0.1,5.8,3.5
	c2.1,0.3,3.3,1.7,4,3.6c1.2,3.3,2.5,6.5,3.8,9.7c1.2,3.1,0.6,6.3-1.7,8.5c-2.2,2.1-5.5,2.7-8.2,1.5c-3-1.3-4.6-4.1-4.5-7.4
	C21.5,19.8,21.5,19.7,21.5,19.5z"/>
<path id="lens2" fill="#FFFFFF" d="M2.7,20.5c0-2.8,2.2-5,4.9-5c2.8,0,5,2.2,5,4.9c0,2.7-2.2,5-4.9,5C4.9,25.4,2.7,23.2,2.7,20.5z
	 M9.8,23.3c-3-0.3-4.6-1.8-5-4.8c-0.8,1.7-0.5,3.3,0.8,4.4C6.7,24,8.3,24.2,9.8,23.3z"/>
<path id="lens1" fill="#FFFFFF" d="M34,20.4c0,2.8-2.2,5-4.9,5c-2.7,0-5-2.2-4.9-5c0-2.8,2.2-5,5-5C31.8,15.5,34,17.7,34,20.4z
	 M31.1,23.3c-1.3-0.1-2.6-0.4-3.4-1.4c-0.8-0.9-1.3-2.1-1.8-3c-0.6,1.4-0.2,3,1.1,4.2C28.2,24,29.9,24.1,31.1,23.3z"/>
<path id="bolt" fill="#FFFFFF" d="M20.9,16.8c0,1.4-1.2,2.6-2.6,2.6c-1.4,0-2.6-1.2-2.6-2.6c0-1.4,1.2-2.6,2.5-2.6
	C19.7,14.2,20.9,15.4,20.9,16.8z"/>
<path id="reflec2" fill="#C6C6C6" d="M9.8,23.3c-1.5,0.8-3.1,0.7-4.3-0.4c-1.2-1.1-1.5-2.8-0.8-4.4C5.2,21.5,6.8,23,9.8,23.3z"/>
<path id="refec1" fill="#C6C6C6" d="M31.1,23.3c-1.3,0.8-2.9,0.7-4.1-0.2c-1.4-1.1-1.7-2.8-1.1-4.2c0.5,0.9,1,2.1,1.8,3
	C28.5,22.9,29.8,23.2,31.1,23.3z"/>
</svg>
