<?xml version="1.0" encoding="utf-8"?>
<!-- Generator: Adobe Illustrator 18.1.1, SVG Export Plug-In . SVG Version: 6.00 Build 0)  -->
<!DOCTYPE svg PUBLIC "-//W3C//DTD SVG 1.1//EN" "http://www.w3.org/Graphics/SVG/1.1/DTD/svg11.dtd">
<svg version="1.1" id="Layer_1" xmlns="http://www.w3.org/2000/svg" xmlns:xlink="http://www.w3.org/1999/xlink" x="0px" y="0px"
	 viewBox="0 0 1280 800" enable-background="new 0 0 1280 800" xml:space="preserve">
<path id="binoc" fill="#313131" d="M725.7,557.1c-68.6,51.4-117.1,51.4-177.1,0c0,20-2.9,37.1-2.9,57.1
	c-11.4,108.6-111.4,191.4-220,185.7C211.4,794.3,120,705.7,120,594.3c0-34.3,8.6-71.4,20-102.9c34.3-94.3,74.3-185.7,108.6-277.1
	c20-54.3,54.3-91.4,114.3-100c14.3-68.6,42.9-100,97.1-111.4c31.4-5.7,57.1,2.9,82.9,17.1c11.4,5.7,25.7,11.4,37.1,11.4
	c25.7,2.9,54.3,0,80,0c31.4,0,62.9,0,94.3-20c57.1-34.3,151.4-2.9,165.7,100c60,8.6,94.3,48.6,114.3,102.9
	c34.3,94.3,71.4,185.7,108.6,277.1c34.3,88.6,17.1,180-48.6,242.9c-62.9,60-157.1,77.1-234.3,42.9C774.3,740,728.6,660,731.4,565.7
	C725.7,565.7,725.7,562.9,725.7,557.1z"/>
<path fill="#FFFFFF" d="M328.6,442.9c-77.1,0-140,62.9-140,142.9c0,77.1,62.9,140,142.9,140c77.1,0,140-65.7,140-142.9
	S408.6,442.9,328.6,442.9z"/>
<path id="lens1" fill="#FFFFFF" d="M1082.9,582.9c0,80-62.9,142.9-140,142.9s-142.9-62.9-140-142.9c0-80,62.9-142.9,142.9-142.9
	C1020,442.9,1082.9,505.7,1082.9,582.9z M1000,665.7c-37.1-2.9-74.3-11.4-97.1-40c-22.9-25.7-37.1-60-51.4-85.7
	c-17.1,40-5.7,85.7,31.4,120C917.1,685.7,965.7,688.6,1000,665.7z"/>
<path id="bolt" fill="#FFFFFF" d="M708.6,480c0,40-34.3,74.3-74.3,74.3S560,520,560,480s34.3-74.3,71.4-74.3
	C674.3,405.7,708.6,440,708.6,480z"/>
<path id="refec1" fill="#C6C6C6" d="M1000,665.7c-37.1,22.9-82.9,20-117.1-5.7c-40-31.4-48.6-80-31.4-120
	c14.3,25.7,28.6,60,51.4,85.7C925.7,654.3,962.9,662.9,1000,665.7z"/>
<path id="reflec2" fill="#C6C6C6" d="M391.4,665.7c-42.9,22.9-88.6,20-122.9-11.4s-42.9-80-22.9-125.7
	C260,614.3,305.7,657.1,391.4,665.7z"/>
</svg>
