<?xml version="1.0" encoding="utf-8"?>
<!-- Generator: Adobe Illustrator 19.1.0, SVG Export Plug-In . SVG Version: 6.00 Build 0)  -->
<svg version="1.1"
	 id="Layer_1" xmlns:cc="http://creativecommons.org/ns#" xmlns:dc="http://purl.org/dc/elements/1.1/" xmlns:rdf="http://www.w3.org/1999/02/22-rdf-syntax-ns#"
	 xmlns="http://www.w3.org/2000/svg" xmlns:xlink="http://www.w3.org/1999/xlink" x="0px" y="0px" viewBox="-402 276 242 242"
	 style="enable-background:new -402 276 242 242;" xml:space="preserve">
<style type="text/css">
	.st0{fill:#BDC3C7;}
	.st1{fill:#ECF0F1;}
	.st2{fill:#E74C3C;}
	.st3{fill:#C0392B;}
	.st4{fill:#34495E;}
	.st5{fill:#7F8C8D;}
	.st6{fill:#95A5A6;}
</style>
<g transform="translate(0 -1028.4)">
	<path class="st0" d="M-354,1349.4c-9.9,0-18,8.1-18,18v126c0,9.9,8.1,18,18,18h54h18h54c9.9,0,18-8.1,18-18v-126
		c0-9.9-8.1-18-18-18h-54h-18H-354z"/>
	<path class="st1" d="M-354,1340.4c-9.9,0-18,8.1-18,18v126c0,9.9,8.1,18,18,18h54h18h54c9.9,0,18-8.1,18-18v-126
		c0-9.9-8.1-18-18-18h-54h-18H-354z"/>
	<path class="st2" d="M-354,1340.4c-9.9,0-18,8.1-18,18v27v9h162v-9v-27c0-9.9-8.1-18-18-18h-54h-18H-354z"/>
	<path class="st3" d="M-331.5,1362.9c0,7.5-6,13.5-13.5,13.5s-13.5-6-13.5-13.5s6-13.5,13.5-13.5S-331.5,1355.4-331.5,1362.9z"/>
	<path class="st0" d="M-345,1322.4c-5,0-9,4-9,9v27c0,5,4,9,9,9s9-4,9-9v-27C-336,1326.4-340,1322.4-345,1322.4z"/>
	<path class="st3" d="M-223.5,1362.9c0,7.5-6,13.5-13.5,13.5s-13.5-6-13.5-13.5s6-13.5,13.5-13.5S-223.5,1355.4-223.5,1362.9z"/>
	<g>
		<path class="st0" d="M-237,1322.4c-5,0-9,3.6-9,9v27c0,4.5,4,9,9,9s9-4.5,9-9v-27C-228,1326-232,1322.4-237,1322.4z"/>
		<path class="st0" d="M-354,1412.4v18h18v-18H-354z M-327,1412.4v18h18v-18H-327z M-300,1412.4v18h18v-18H-300z M-273,1412.4v18h18
			v-18H-273z M-246,1412.4v18h18v-18H-246z"/>
		<path class="st0" d="M-354,1439.4v18h18v-18H-354z M-327,1439.4v18h18v-18H-327z M-300,1439.4v18h18v-18H-300z M-273,1439.4v18h18
			v-18H-273z M-246,1439.4v18h18v-18H-246z"/>
		<path class="st0" d="M-354,1466.4v18h18v-18H-354z M-327,1466.4v18h18v-18H-327z M-300,1466.4v18h18v-18H-300z M-273,1466.4v18h18
			v-18H-273z M-246,1466.4v18h18v-18H-246z"/>
	</g>
	<path class="st4" d="M-188,1480.3c0,24.6-19.9,44.5-44.5,44.5s-44.5-19.9-44.5-44.5c0-24.6,19.9-44.5,44.5-44.5
		S-188,1455.7-188,1480.3z"/>
	<path class="st0" d="M-232.5,1439.4c-2.5,0-4.5,2-4.5,4.5v4.5v27v4.5c0,2.5,2,4.5,4.5,4.5h4.5h18h4.5c2.5,0,4.5-2,4.5-4.5
		s-2-4.5-4.5-4.5h-4.5h-18v-27v-4.5C-228,1441.4-230,1439.4-232.5,1439.4z"/>
	<path class="st5" d="M-232.5,1430.4c-27.3,0-49.5,21.6-49.5,49.5c0,27,22.2,49.5,49.5,49.5s49.5-22.5,49.5-49.5
		C-183,1452-205.2,1430.4-232.5,1430.4z M-232.5,1439.4c22.4,0,40.5,18,40.5,40.5c0,21.6-18.1,40.5-40.5,40.5s-40.5-18.9-40.5-40.5
		C-273,1457.4-254.9,1439.4-232.5,1439.4z"/>
	<path class="st6" d="M-228,1479.9c0,2.5-2,4.5-4.5,4.5s-4.5-2-4.5-4.5s2-4.5,4.5-4.5S-228,1477.4-228,1479.9z"/>
</g>
</svg>
