<?xml version="1.0" encoding="utf-8"?>
<!-- Generator: Adobe Illustrator 18.1.1, SVG Export Plug-In . SVG Version: 6.00 Build 0)  -->
<!DOCTYPE svg PUBLIC "-//W3C//DTD SVG 1.1//EN" "http://www.w3.org/Graphics/SVG/1.1/DTD/svg11.dtd">
<svg version="1.1" id="Layer_2" xmlns="http://www.w3.org/2000/svg" xmlns:xlink="http://www.w3.org/1999/xlink" x="0px" y="0px"
	 viewBox="0 0 1280.2 128" enable-background="new 0 0 1280.2 128" xml:space="preserve">
<polygon fill="#D56C4A" points="36.2,42.5 92.4,0 12.1,0 17.2,3 0,11.2 0.2,37.2 "/>
<polygon fill="#DA6E4D" points="17.2,3 11.7,0 0.1,0 0,11.2 "/>
<polygon fill="#DD704E" points="66.7,93.8 114.7,32.8 36.2,42.5 0.2,37.2 0,58.8 "/>
<polygon fill="#E17350" points="125.1,0 92.1,0 36.2,42.5 114.7,32.8 "/>
<polygon fill="#D56C4A" points="0.1,94 67.1,94 0,58.8 "/>
<polygon fill="#DF714F" points="0.2,116.3 67.1,94 0.1,94 "/>
<polygon fill="#DD704E" points="91.4,128 184.4,94 67.1,94 0.1,116.3 0.1,128 "/>
<polygon fill="#E67550" points="184.4,94 189.7,30.3 67.1,94 "/>
<polygon fill="#E1714B" points="189.6,30.3 221.7,0 191.1,0 114.7,32.8 "/>
<polygon fill="#E2734E" points="191.1,0 125.1,0 114.7,32.8 "/>
<polygon fill="#E6764F" points="241.2,65.7 184.4,94 189.6,30.3 "/>
<polygon fill="#E8774D" points="310.1,103.7 184.4,94 241.2,65.7 "/>
<polygon fill="#E5734C" points="261.4,128 310.1,103.7 184.4,94 91.4,128 "/>
<path fill="#EA774D" d="M372.7,27.8c-0.5,0-71.7,7.8-71.7,7.8l-59.8,30l68.8,38L372.7,27.8z"/>
<polygon fill="#E8754B" points="307.1,0 264.1,0 301.1,35.7 "/>
<polygon fill="#E77349" points="338.1,0 307.1,0 301.1,35.7 "/>
<polygon fill="#EF7D4F" points="404.1,0 338.1,0 301.1,35.7 372.7,27.8 "/>
<polygon fill="#EA7549" points="416.1,0 404.1,0 372.7,27.8 310.1,103.7 395.7,111 407.4,70 "/>
<polygon fill="#E9774B" points="440.9,128 395.7,111 310.1,103.7 261.4,128 "/>
<polygon fill="#ED7949" points="483.2,93.5 407.4,70 395.7,111 "/>
<polygon fill="#EC7849" points="464.1,128 483.2,93.5 395.7,111 440.9,128 "/>
<polygon fill="#EE7D4C" points="480.2,21 413.3,22.3 407.4,70 "/>
<polygon fill="#EF7C4D" points="441.1,0 416.1,0 413.3,22.3 480.2,21 "/>
<polygon fill="#F1814D" points="518.1,0 441.1,0 480.2,21 "/>
<polygon fill="#F38650" points="554.1,19 562.7,0 518.1,0 480.2,21 "/>
<polygon fill="#EE7947" points="544.9,55.5 407.4,70 483.2,93.5 "/>
<polygon fill="#EE7947" points="572.3,92.8 483.2,93.5 464.1,128 535.1,128 "/>
<polygon fill="#EE7A48" points="572.3,92.8 544.9,55.5 483.2,93.5 "/>
<polygon fill="#EE7A48" points="554.1,19 480.2,21 407.4,70 544.9,55.5 "/>
<polygon fill="#F17C49" points="572.3,92.8 554.1,19 544.9,55.5 "/>
<polygon fill="#F27E48" points="580.9,128 572.3,92.8 535.1,128 "/>
<polygon fill="#F27E48" points="627.3,114 659,68.7 572.3,92.8 580.9,128 604.1,128 "/>
<polygon fill="#F37D47" points="635.7,13.2 554.1,19 572.3,92.8 "/>
<polygon fill="#F4864B" points="659,68.7 635.7,13.2 572.3,92.8 "/>
<polygon fill="#F47F48" points="672.1,0 618.1,0 635.7,13.2 "/>
<polygon fill="#F5834A" points="686.1,0 672.1,0 635.7,13.2 659,68.7 "/>
<polygon fill="#F58346" points="726.9,109.7 766.4,26.8 801.7,0 686.1,0 659,68.7 "/>
<polygon fill="#F38149" points="696.1,128 637.1,128 627.3,114 659,68.7 "/>
<polygon fill="#F3874D" points="637.1,128 604.1,128 627.3,114 "/>
<polygon fill="#F48A4B" points="765.1,128 696.1,128 659,68.7 "/>
<polygon fill="#F48649" points="756.2,97 730.3,108.6 728,107.3 766.4,26.8 "/>
<polygon fill="#F38345" points="873.9,92.7 839.5,58.5 756.2,97 730.3,108.6 765.1,128 850.1,128 "/>
<polygon fill="#F58747" points="839.5,58.5 766.4,26.8 756.2,97 "/>
<polygon fill="#F48F49" points="986.9,117.8 940.2,85.5 839.5,58.5 873.9,92.7 "/>
<polygon fill="#F38443" points="940.2,85.5 945.4,8 766.4,26.8 839.5,58.5 "/>
<polygon fill="#F18142" points="1049.1,0 944.1,0 945.4,8 940.2,85.5 "/>
<polygon fill="#EF8242" points="995.1,128 850.1,128 873.9,92.7 986.9,117.8 "/>
<polygon fill="#EF8242" points="1119.2,83.2 1068.7,128 995.1,128 986.9,117.8 940.2,85.5 1043.7,4.2 "/>
<polygon fill="#F18A47" points="1067.1,0 1049.1,0 1043.7,4.2 "/>
<polygon fill="#ED7F3F" points="1095,57.9 1134.4,0 1067.1,0 1043.7,4.2 "/>
<polygon fill="#EC7F3E" points="1219.4,45.7 1175.8,12.2 1167.1,0 1134.1,0 1095,57.9 1119.2,83.2 "/>
<polygon fill="#ED8340" points="1196.1,0 1167.1,0 1175.8,12.2 "/>
<polygon fill="#EE8441" points="1241.2,88.3 1219.3,45.7 1119.2,83.2 1068.7,128 1161.1,128 "/>
<polygon fill="#EC813F" points="1214.4,128 1241.2,88.3 1161.1,128 "/>
<polygon fill="#E87E3E" points="1241.1,128 1241.1,88 1214.4,128 "/>
<polygon fill="#EC8240" points="1274.2,128 1241.1,88 1241.1,128 "/>
<polygon fill="#E97D3E" points="1280.1,97.2 1241.1,88 1274.2,128 1280.1,128 "/>
<polygon fill="#ED813F" points="1280.2,42.8 1241.1,88 1280.1,97.2 "/>
<polygon fill="#EF8440" points="1280.1,34.5 1219.3,45.7 1241.1,88 1280.2,42.8 "/>
<polygon fill="#E97D3D" points="1280.1,0 1196.1,0 1175.8,12.2 1219.3,45.7 1280.1,34.5 "/>
<polygon fill="#E6754E" points="221.7,0 189.6,30.3 241.2,65.7 301.1,35.7 264.1,0 "/>
<polygon fill="#DC6F4A" points="114.7,32.8 66.7,93.8 67.1,94 189.6,30.3 "/>
<polygon fill="#F4854C" points="562.7,0 554.1,19 635.7,13.2 618.1,0 "/>
<polygon fill="#F48746" points="801.7,0 766.4,26.8 945.4,8 944.1,0 "/>
</svg>
