<?xml version="1.0" encoding="utf-8"?>
<!-- Generator: Adobe Illustrator 18.1.1, SVG Export Plug-In . SVG Version: 6.00 Build 0)  -->
<!DOCTYPE svg PUBLIC "-//W3C//DTD SVG 1.1//EN" "http://www.w3.org/Graphics/SVG/1.1/DTD/svg11.dtd">
<svg version="1.1" id="Layer_2" xmlns="http://www.w3.org/2000/svg" xmlns:xlink="http://www.w3.org/1999/xlink" x="0px" y="0px"
	 viewBox="0 232 960 96" enable-background="new 0 232 960 96" xml:space="preserve">
<polygon fill="#D56C4A" points="27.1,263.9 69.3,232 9.1,232 12.9,234.3 0,240.4 0.1,259.9 "/>
<polygon fill="#DA6E4D" points="12.9,234.3 8.8,232 0.1,232 0,240.4 "/>
<polygon fill="#DD704E" points="50,302.3 86,256.6 27.1,263.9 0.1,259.9 0,276.1 "/>
<polygon fill="#E17350" points="93.8,232 69.1,232 27.1,263.9 86,256.6 "/>
<polygon fill="#D56C4A" points="0.1,302.5 50.3,302.5 0,276.1 "/>
<polygon fill="#DF714F" points="0.1,319.2 50.3,302.5 0.1,302.5 "/>
<polygon fill="#DD704E" points="68.5,328 138.3,302.5 50.3,302.5 0.1,319.2 0.1,328 "/>
<polygon fill="#E67550" points="138.3,302.5 142.3,254.7 50.3,302.5 "/>
<polygon fill="#E1714B" points="142.2,254.7 166.2,232 143.3,232 86,256.6 "/>
<polygon fill="#E2734E" points="143.3,232 93.8,232 86,256.6 "/>
<polygon fill="#E6764F" points="180.9,281.3 138.3,302.5 142.2,254.7 "/>
<polygon fill="#E8774D" points="232.5,309.8 138.3,302.5 180.9,281.3 "/>
<polygon fill="#E5734C" points="196,328 232.5,309.8 138.3,302.5 68.5,328 "/>
<path fill="#EA774D" d="M279.5,252.9c-0.4,0-53.8,5.8-53.8,5.8l-44.8,22.5l51.6,28.5L279.5,252.9z"/>
<polygon fill="#E8754B" points="230.3,232 198,232 225.8,258.8 "/>
<polygon fill="#E77349" points="253.5,232 230.3,232 225.8,258.8 "/>
<polygon fill="#EF7D4F" points="303,232 253.5,232 225.8,258.8 279.5,252.9 "/>
<polygon fill="#EA7549" points="312,232 303,232 279.5,252.9 232.5,309.8 296.7,315.2 305.5,284.5 "/>
<polygon fill="#E9774B" points="330.6,328 296.7,315.2 232.5,309.8 196,328 "/>
<polygon fill="#ED7949" points="362.3,302.1 305.5,284.5 296.7,315.2 "/>
<polygon fill="#EC7849" points="348,328 362.3,302.1 296.7,315.2 330.6,328 "/>
<polygon fill="#EE7D4C" points="360.1,247.8 309.9,248.7 305.5,284.5 "/>
<polygon fill="#EF7C4D" points="330.8,232 312,232 309.9,248.7 360.1,247.8 "/>
<polygon fill="#F1814D" points="388.5,232 330.8,232 360.1,247.8 "/>
<polygon fill="#F38650" points="415.5,246.3 422,232 388.5,232 360.1,247.8 "/>
<polygon fill="#EE7947" points="408.6,273.6 305.5,284.5 362.3,302.1 "/>
<polygon fill="#EE7947" points="429.2,301.6 362.3,302.1 348,328 401.3,328 "/>
<polygon fill="#EE7A48" points="429.2,301.6 408.6,273.6 362.3,302.1 "/>
<polygon fill="#EE7A48" points="415.5,246.3 360.1,247.8 305.5,284.5 408.6,273.6 "/>
<polygon fill="#F17C49" points="429.2,301.6 415.5,246.3 408.6,273.6 "/>
<polygon fill="#F27E48" points="435.6,328 429.2,301.6 401.3,328 "/>
<polygon fill="#F27E48" points="470.4,317.5 494.2,283.5 429.2,301.6 435.6,328 453,328 "/>
<polygon fill="#F37D47" points="476.7,241.9 415.5,246.3 429.2,301.6 "/>
<polygon fill="#F4864B" points="494.2,283.5 476.7,241.9 429.2,301.6 "/>
<polygon fill="#F47F48" points="504,232 463.5,232 476.7,241.9 "/>
<polygon fill="#F5834A" points="514.5,232 504,232 476.7,241.9 494.2,283.5 "/>
<polygon fill="#F58346" points="545.1,314.3 574.7,252.1 601.2,232 514.5,232 494.2,283.5 "/>
<polygon fill="#F38149" points="522,328 477.8,328 470.4,317.5 494.2,283.5 "/>
<polygon fill="#F3874D" points="477.8,328 453,328 470.4,317.5 "/>
<polygon fill="#F48A4B" points="573.7,328 522,328 494.2,283.5 "/>
<polygon fill="#F48649" points="567.1,304.7 547.6,313.4 545.9,312.5 574.7,252.1 "/>
<polygon fill="#F38345" points="655.3,301.5 629.5,275.9 567.1,304.7 547.6,313.4 573.7,328 637.5,328 "/>
<polygon fill="#F58747" points="629.5,275.9 574.7,252.1 567.1,304.7 "/>
<polygon fill="#F48F49" points="740.1,320.3 705,296.1 629.5,275.9 655.3,301.5 "/>
<polygon fill="#F38443" points="705,296.1 708.9,238 574.7,252.1 629.5,275.9 "/>
<polygon fill="#F18142" points="786.7,232 708,232 708.9,238 705,296.1 "/>
<polygon fill="#EF8242" points="746.2,328 637.5,328 655.3,301.5 740.1,320.3 "/>
<polygon fill="#EF8242" points="839.3,294.4 801.4,328 746.2,328 740.1,320.3 705,296.1 782.7,235.2 "/>
<polygon fill="#F18A47" points="800.2,232 786.7,232 782.7,235.2 "/>
<polygon fill="#ED7F3F" points="821.1,275.4 850.7,232 800.2,232 782.7,235.2 "/>
<polygon fill="#EC7F3E" points="914.4,266.3 881.7,241.2 875.2,232 850.4,232 821.1,275.4 839.3,294.4 "/>
<polygon fill="#ED8340" points="896.9,232 875.2,232 881.7,241.2 "/>
<polygon fill="#EE8441" points="930.8,298.2 914.3,266.3 839.3,294.4 801.4,328 870.7,328 "/>
<polygon fill="#EC813F" points="910.7,328 930.8,298.2 870.7,328 "/>
<polygon fill="#E87E3E" points="930.7,328 930.7,298 910.7,328 "/>
<polygon fill="#EC8240" points="955.5,328 930.7,298 930.7,328 "/>
<polygon fill="#E97D3E" points="959.9,304.9 930.7,298 955.5,328 959.9,328 "/>
<polygon fill="#ED813F" points="960,264.1 930.7,298 959.9,304.9 "/>
<polygon fill="#EF8440" points="959.9,257.9 914.3,266.3 930.7,298 960,264.1 "/>
<polygon fill="#E97D3D" points="959.9,232 896.9,232 881.7,241.2 914.3,266.3 959.9,257.9 "/>
<polygon fill="#E6754E" points="166.2,232 142.2,254.7 180.9,281.3 225.8,258.8 198,232 "/>
<polygon fill="#DC6F4A" points="86,256.6 50,302.3 50.3,302.5 142.2,254.7 "/>
<polygon fill="#F4854C" points="422,232 415.5,246.3 476.7,241.9 463.5,232 "/>
<polygon fill="#F48746" points="601.2,232 574.7,252.1 708.9,238 708,232 "/>
<g>
	<path fill="#ECAC9A" d="M3.6,239.4c0-1.8-0.4-2.6-1.8-2.6h-2.4c-0.3,0-0.4-0.1-0.4-0.5v-1.2c0-0.3,0.1-0.4,0.5-0.4
		c0.5,0,3,0.2,8.1,0.2c4.4,0,6.9-0.2,7.6-0.2c0.3,0,0.4,0.1,0.4,0.4v1.3c0,0.3-0.1,0.4-0.4,0.4H13c-1.6,0-2.5,0.9-2.6,2
		c0,0.6-0.2,3.8-0.2,6.8v6.5c0,2.6,0.1,6.4,0.2,8c0.2,2.4,0.6,4.8,1.8,6.5c1.8,2.4,4.6,3.3,7.1,3.3c2.4,0,5.4-0.9,7-2.5
		c2-2,3-5,3-8.9v-9.4c0-4.2-0.4-8.8-0.6-10c-0.2-1.4-1-2.3-2.2-2.3h-1.9c-0.3,0-0.4-0.2-0.4-0.4v-1.3c0-0.3,0.1-0.4,0.4-0.4
		c0.5,0,2.9,0.2,6.4,0.2c3.3,0,4.9-0.2,5.4-0.2c0.5,0,0.5,0.2,0.5,0.4v1.2c0,0.3-0.1,0.5-0.3,0.5h-1.9c-1.9,0-2.1,1.5-2.2,2
		c-0.1,0.6-0.1,8-0.1,8.7c0,0.7-0.1,9.9-0.3,12c-0.3,4.3-1.6,7.6-4.4,10.1c-2.2,2-5.6,3.3-9.6,3.3c-2.5,0-5.6-0.4-7.6-1.3
		c-3-1.3-5.1-3.7-6.2-7c-0.7-2.3-0.9-5.8-0.9-12.6V239.4L3.6,239.4z"/>
	<path fill="#ECAC9A" d="M38.6,260.3c0.2,0,0.3,0.1,0.3,0.4c0.1,1.7,0.5,3.7,2,6c1.6,2.5,4.3,3.8,6.9,3.8c2.8,0,6.8-1.8,6.8-6.1
		c0-4.8-2.2-6.4-7.8-8.5c-1.7-0.6-5.1-2.1-7.7-4.4c-1.8-1.7-2.6-4.3-2.6-7.5c0-2.9,1.2-5.4,3.7-7.3c2.1-1.8,4.4-2.5,7.5-2.5
		c3.5,0,5.6,0.8,6.6,1.3c0.5,0.2,0.8,0.1,1.1-0.2l0.7-0.7c0.2-0.2,0.4-0.3,0.7-0.3c0.3,0,0.4,0.3,0.4,0.8c0,0.8,0.8,8.2,0.8,8.7
		c0,0.2-0.1,0.3-0.3,0.4l-0.8,0.3c-0.2,0.1-0.4,0-0.5-0.3c-0.5-1.5-1.4-3.6-3.3-5.6c-1.4-1.5-3-2.2-5.5-2.2c-4.2,0-5.9,3.4-5.9,5.3
		c0,1.8,0.2,3.4,1.5,4.7c1.4,1.4,4.3,2.6,6.4,3.3c3,0.9,5.6,2,7.6,4.1c1.7,1.8,2.6,4,2.6,7.5c0,6.4-4.2,11.7-11.1,11.7
		c-4.3,0-6.8-0.9-8.9-2.5c-0.6-0.4-0.9-0.6-1.3-0.6c-0.3,0-0.5,0.4-0.8,0.9c-0.3,0.5-0.5,0.6-0.9,0.6c-0.4,0-0.6-0.3-0.6-0.8
		c0.1-0.6,0.8-9.1,0.9-9.8c0.1-0.3,0.1-0.4,0.3-0.4L38.6,260.3L38.6,260.3z"/>
	<path fill="#ECAC9A" d="M95.8,263.4c0.2,0.2,0.2,0.3,0.1,0.5c-3.1,4.5-8.2,8.8-15.6,8.8c-6.7,0-10.5-2-13.7-4.9
		c-3.9-3.5-5.7-9.6-5.7-14.2c0-5.1,1.7-10.1,5.4-14.1c2.8-3,7.4-5.6,13.6-5.6c4.8,0,8.7,1.5,10.6,2.5c0.7,0.4,0.9,0.4,1.1,0l0.4-1.4
		c0.1-0.3,0.2-0.3,0.8-0.3c0.6,0,0.7,0.1,0.7,0.8c0,0.9,1.1,9.3,1.3,10.9c0.1,0.3,0,0.5-0.2,0.5l-1,0.3c-0.3,0.1-0.4-0.1-0.6-0.5
		c-0.6-1.9-1.9-4.5-4.1-6.8c-2.3-2.2-5-3.9-9.1-3.9c-8.4,0-11.9,7.6-11.9,15.1c0,3.3,0.9,9.4,4.8,13.6c3.5,3.7,6.5,4.1,9,4.1
		c5.8,0,10.3-2.9,12.5-6.1c0.3-0.4,0.5-0.5,0.6-0.4L95.8,263.4L95.8,263.4z"/>
	<path fill="#FAEDE8" d="M11.1,302.8c-0.5,1.3-3.4,9.2-3.6,10.3c-0.1,0.4-0.2,0.9-0.2,1.1c0,0.7,0.6,1.1,1.8,1.1h2.4
		c0.4,0,0.5,0.1,0.5,0.4v1.2c0,0.4-0.2,0.5-0.4,0.5c-0.7,0-2.9-0.2-5.9-0.2c-3.8,0-4.9,0.2-5.7,0.2c-0.3,0-0.4-0.1-0.4-0.4v-1.2
		c0-0.3,0.2-0.4,0.4-0.4h1.8c1.6,0,2.3-0.7,3-2.4c0.4-0.8,4.1-10.4,5.7-14.7c0.4-1,4.6-12.2,5-13.6c0.2-0.5,0.4-1.2,0.1-1.8
		c-0.2-0.2-0.4-0.5-0.4-0.7c0-0.2,0.1-0.4,0.5-0.5c1.5-0.3,3.7-1.9,4.3-2.6c0.3-0.3,0.4-0.5,0.7-0.5c0.3,0,0.4,0.3,0.6,0.9
		c1,3.3,5,14.9,6,18.2c1.2,4,4.6,13.7,5.3,15.2c0.9,1.7,2.2,2.3,3.5,2.3h1.7c0.3,0,0.4,0.2,0.4,0.4l0,1.3c0,0.3-0.2,0.4-0.5,0.4
		c-0.9,0-2-0.2-6.2-0.2c-4.3,0-6.1,0.2-7.3,0.2c-0.3,0-0.4-0.2-0.4-0.5v-1.2c0-0.3,0.2-0.4,0.5-0.4h1.3c1.5,0,1.9-0.5,1.6-2
		c-0.4-1.9-2.5-8.5-3.3-10.6H11.1L11.1,302.8z M23.2,301c-0.5-1.6-4.7-14.5-4.9-15.3c-0.2-0.4-0.3-0.7-0.4-0.7
		c-0.2,0-0.4,0.4-0.6,0.8c-0.3,0.7-5.2,14-5.5,15.2L23.2,301L23.2,301z"/>
	<path fill="#FAEDE8" d="M59.1,314.4c0,0.8,0.5,1.1,1.1,1.1h1.7c0.5,0,0.6,0.2,0.6,0.5v0.8c0,0.4-0.1,0.6-0.4,0.6
		c-0.4,0-2-0.2-4.9-0.2c-2.6,0-4.3,0.2-4.7,0.2c-0.3,0-0.4-0.2-0.4-0.6V316c0-0.4,0.2-0.5,0.7-0.5h1.5c0.6,0,1-0.3,1-1.2
		c0-1.4,0.1-3,0.1-4.4v-6.8c0-2.1,0-3.6-1.5-4.7c-1.2-0.9-2.5-0.9-3.8-0.9c-0.8,0-2.6,0.4-4.2,2c-1,1.1-1.2,2.5-1.2,3.5v10.7
		c0,1.4,0.2,1.7,1.2,1.7h1.3c0.4,0,0.5,0.2,0.5,0.5v0.9c0,0.3-0.1,0.5-0.4,0.5c-0.4,0-1.8-0.2-4.5-0.2c-2.6,0-4.3,0.2-4.6,0.2
		c-0.3,0-0.4-0.2-0.4-0.5V316c0-0.3,0.1-0.5,0.5-0.5h1.5c0.7,0,1-0.2,1-1v-12.1c0-1.6-0.8-2.4-2.1-3.1l-0.4-0.2
		c-0.4-0.2-0.4-0.3-0.4-0.5v-0.3c0-0.3,0.2-0.4,0.5-0.5l4.5-2.5c0.4-0.2,0.7-0.4,0.9-0.4c0.3,0,0.4,0.2,0.4,0.6l0.4,3.2h0.1
		c1.5-1.9,4.5-3.8,7.1-3.8c1.6,0,3.2,0.3,4.4,1.1c1.6,1,2.9,3.6,2.9,4.9V314.4L59.1,314.4z"/>
	<path fill="#FAEDE8" d="M83.6,314.4c0,0.8,0.5,1.1,1.1,1.1h1.7c0.5,0,0.6,0.2,0.6,0.5v0.8c0,0.4-0.1,0.6-0.4,0.6
		c-0.4,0-2-0.2-4.9-0.2c-2.6,0-4.3,0.2-4.7,0.2c-0.3,0-0.4-0.2-0.4-0.6V316c0-0.4,0.2-0.5,0.7-0.5h1.5c0.6,0,1-0.3,1-1.2
		c0.1-1.3,0.1-3,0.1-4.4v-6.8c0-2.1,0-3.6-1.5-4.7c-1.2-0.9-2.5-0.9-3.8-0.9c-0.8,0-2.6,0.4-4.2,2c-1,1.1-1.2,2.5-1.2,3.5v10.7
		c0,1.4,0.2,1.7,1.2,1.7h1.3c0.4,0,0.5,0.2,0.5,0.5v0.9c0,0.3-0.1,0.5-0.4,0.5c-0.4,0-1.8-0.2-4.5-0.2c-2.6,0-4.3,0.2-4.6,0.2
		c-0.3,0-0.4-0.2-0.4-0.5V316c0-0.3,0.1-0.5,0.5-0.5h1.5c0.7,0,1-0.2,1-1v-12.1c0-1.6-0.8-2.4-2.1-3.1l-0.4-0.2
		c-0.4-0.2-0.4-0.3-0.4-0.5v-0.3c0-0.3,0.2-0.4,0.5-0.5l4.5-2.5c0.4-0.2,0.7-0.4,0.9-0.4c0.3,0,0.4,0.2,0.4,0.6l0.4,3.2h0.1
		c1.5-1.9,4.5-3.8,7.1-3.8c1.6,0,3.2,0.3,4.4,1.1c1.6,1,2.9,3.6,2.9,4.9V314.4L83.6,314.4z"/>
	<path fill="#FAEDE8" d="M90.8,303.4c-0.1,0.5-0.2,1.3-0.2,2.5c0,5.1,3.2,8.9,7.4,8.9c3.2,0,5.4-1.8,6.3-3.5
		c0.1-0.2,0.3-0.3,0.5-0.3l0.7,0.4c0.2,0,0.3,0.2,0,0.8c-0.9,2.1-3.6,5.7-8.2,5.7c-3,0-6.2-0.9-8.1-3.7c-1.8-2.6-2.3-4.6-2.3-8.2
		c0-2,0.5-5.5,3.3-8.2c2.2-2.3,4.8-2.8,7.4-2.8c6,0,7.6,5.6,7.6,7.6c0,0.7-0.6,0.8-1.5,0.8H90.8L90.8,303.4z M99.1,301.9
		c1,0,1.4-0.3,1.4-0.7c0-1.2-0.6-4.6-4-4.6c-2.3,0-4.5,1.5-5.4,5.3H99.1L99.1,301.9z"/>
	<path fill="#FAEDE8" d="M128.1,314.4c0,0.8,0.5,1.1,1.1,1.1h1.7c0.5,0,0.6,0.2,0.6,0.5v0.8c0,0.4-0.1,0.6-0.4,0.6
		c-0.4,0-2-0.2-4.9-0.2c-2.6,0-4.3,0.2-4.7,0.2c-0.3,0-0.4-0.2-0.4-0.6V316c0-0.4,0.2-0.5,0.7-0.5h1.5c0.6,0,1-0.3,1-1.2
		c0.1-1.3,0.1-3,0.1-4.4v-6.8c0-2.1,0-3.6-1.5-4.7c-1.2-0.9-2.5-0.9-3.8-0.9c-0.8,0-2.6,0.4-4.2,2c-1,1.1-1.2,2.5-1.2,3.5v10.7
		c0,1.4,0.2,1.7,1.2,1.7h1.3c0.4,0,0.5,0.2,0.5,0.5v0.9c0,0.3-0.1,0.5-0.4,0.5c-0.4,0-1.8-0.2-4.5-0.2c-2.6,0-4.3,0.2-4.6,0.2
		c-0.3,0-0.4-0.2-0.4-0.5V316c0-0.3,0.1-0.5,0.5-0.5h1.5c0.7,0,1-0.2,1-1v-12.1c0-1.5-0.8-2.4-2.1-3.1l-0.4-0.2
		c-0.4-0.2-0.4-0.3-0.4-0.5v-0.3c0-0.3,0.2-0.4,0.5-0.5l4.5-2.5c0.4-0.2,0.7-0.4,0.9-0.4c0.3,0,0.4,0.2,0.4,0.6l0.4,3.2h0.1
		c1.5-1.9,4.5-3.8,7.1-3.8c1.6,0,3.2,0.3,4.4,1.1c1.6,1,2.9,3.6,2.9,4.9V314.4L128.1,314.4z"/>
	<path fill="#FAEDE8" d="M133.1,289.3c0-3.5-0.6-4.2-2.4-4.8l-0.5-0.2c-0.6-0.2-0.7-0.3-0.7-0.4v-0.4c0-0.2,0.1-0.3,0.4-0.4
		c1.5-0.7,4.2-2,5.5-2.9c0.4-0.3,0.8-0.5,1.1-0.5c0.4,0,0.5,0.3,0.4,0.9c-0.1,0.4-0.1,6.3-0.1,10.9v6c1.7-1.6,4.6-2.6,7.2-2.6
		c4.6,0,9.5,3.7,9.5,11.1c0,6.1-4.9,11.8-10.8,11.8c-2.9,0-4.9-0.6-6.1-1.3l-2.1,1.1c-0.2,0.2-0.4,0.2-0.7,0.2l-0.6-0.2
		c-0.2-0.1-0.3-0.2-0.2-0.4c0.1-0.7,0.1-5,0.1-8.8V289.3L133.1,289.3z M136.8,306.1c0,4.3,0.2,5.9,0.8,7.5c0.5,1.2,2.7,2.6,4.9,2.6
		c3.1,0,6.9-2.1,6.9-8.9c0-5-2.6-9.8-7.7-9.8c-1.9,0-3.8,0.7-4.9,1.9V306.1L136.8,306.1z"/>
	<path fill="#FAEDE8" d="M159.4,303.4c-0.1,0.5-0.2,1.3-0.2,2.5c0,5.1,3.2,8.9,7.4,8.9c3.2,0,5.4-1.8,6.3-3.5
		c0.1-0.2,0.3-0.3,0.5-0.3l0.7,0.4c0.2,0.1,0.3,0.2,0,0.8c-0.9,2.1-3.6,5.7-8.2,5.7c-3,0-6.2-0.9-8.1-3.7c-1.8-2.6-2.3-4.6-2.3-8.2
		c0-2,0.5-5.5,3.3-8.2c2.2-2.3,4.8-2.7,7.4-2.7c6,0,7.6,5.6,7.6,7.6c0,0.7-0.6,0.8-1.5,0.8L159.4,303.4L159.4,303.4z M167.6,301.9
		c1,0,1.4-0.3,1.4-0.7c0-1.2-0.6-4.6-4-4.6c-2.3,0-4.5,1.5-5.4,5.3H167.6L167.6,301.9z"/>
	<path fill="#FAEDE8" d="M178.4,303.4c0-2.6-0.4-3.2-1.9-3.9l-1-0.5c-0.3-0.1-0.4-0.2-0.4-0.4v-0.3c0-0.2,0.1-0.3,0.4-0.5l5.1-2.6
		c0.3-0.2,0.5-0.2,0.7-0.2c0.3,0,0.4,0.3,0.4,0.6l0.3,3.6h0.2c1.6-2.4,4-4.5,6.2-4.5c1.8,0,2.6,1.1,2.6,2.3c0,1.5-1.2,2.5-2.2,2.5
		c-0.6,0-1.1-0.2-1.5-0.4c-0.4-0.3-1-0.4-1.7-0.4c-0.8,0-2.2,0.5-3.1,2.2c-0.3,0.6-0.5,1.5-0.5,1.7v10.9c0,1.6,0.4,2.1,1.5,2.1h2.4
		c0.3,0,0.4,0.2,0.4,0.5v0.9c0,0.3-0.1,0.5-0.3,0.5c-0.3,0-2.7-0.2-5.5-0.2c-3.2,0-5.4,0.2-5.7,0.2c-0.2,0-0.3-0.1-0.3-0.5V316
		c0-0.4,0.1-0.5,0.6-0.5h2c0.8,0,1.1-0.3,1.1-1c0.1-1.7,0.1-3.5,0.1-6.2V303.4L178.4,303.4z"/>
	<path fill="#FAEDE8" d="M192.2,329.7c-1.9-1.1-2.6-2.5-2.6-4.2c0-2.9,3-5.1,5.4-6.2V319c-2.2-0.5-3.5-2.1-3.5-3.6
		c0-2.5,2.9-4.3,4.7-4.9v-0.1c-2-0.9-4.8-3.3-4.8-7.9c0-3.4,3-7.5,8.9-7.5c3.9,0,6,2.4,6.5,3c1.4-1,3.2-2,4.9-2
		c1.7,0,2.5,1.1,2.4,2.2c0,1-0.8,1.9-2,1.9c-0.9,0-1.4-0.4-1.8-0.8c-0.3-0.2-0.7-0.5-1.1-0.5c-0.4,0-1,0-1.7,0.3
		c0.4,1,0.8,2.2,0.8,3.9c0,2-0.6,4-1.9,5.6c-1.3,1.5-4.3,2.6-6,2.6c-1.1,0-1.9-0.1-2.6-0.3c-1,0.4-2.7,1.5-2.7,2.9
		c0,2.1,2.6,2,6.1,1.8c4.3-0.2,6.8,0.3,8.9,1.9c2.2,1.7,2.5,3.7,2.5,5c0,2.4-0.9,4.5-3.5,6.4c-1.4,1-4.5,2.4-8.9,2.4
		C197.6,331.3,194.7,331.1,192.2,329.7 M209.3,324.3c0-3.1-2.3-5.4-7.5-5l-5,0.4c-1.6,0.4-4.1,2.2-4.1,5c0,1.3,1,2.9,2,3.6
		c1.7,1.2,3.6,1.5,7.3,1.5C203.9,329.7,209.6,328.3,209.3,324.3 M204.5,302.2c0-2.3-0.5-3.6-1.4-4.7c-0.7-0.7-1.7-1.1-2.5-1.1
		c-1.2,0-2.4,0.2-3.7,1.5c-1.7,1.8-1.9,4.1-1.9,6.1c0,1.8,0.6,3.4,1.7,4.5c0.9,0.9,1.9,1.3,3.1,1.3
		C203.3,309.8,204.5,305.5,204.5,302.2"/>
</g>
</svg>
