<?xml version="1.0" encoding="utf-8"?>
<!-- Generator: Adobe Illustrator 19.1.0, SVG Export Plug-In . SVG Version: 6.00 Build 0)  -->
<svg version="1.1" id="Layer_2" xmlns="http://www.w3.org/2000/svg" xmlns:xlink="http://www.w3.org/1999/xlink" x="0px" y="0px"
	 viewBox="174 349 960 96" style="enable-background:new 174 349 960 96;" xml:space="preserve">
<style type="text/css">
	.st0{fill:#D56C4A;}
	.st1{fill:#DA6E4D;}
	.st2{fill:#DD704E;}
	.st3{fill:#E17350;}
	.st4{fill:#DF714F;}
	.st5{fill:#E67550;}
	.st6{fill:#E1714B;}
	.st7{fill:#E2734E;}
	.st8{fill:#E6764F;}
	.st9{fill:#E8774D;}
	.st10{fill:#E5734C;}
	.st11{fill:#EA774D;}
	.st12{fill:#E8754B;}
	.st13{fill:#E77349;}
	.st14{fill:#EF7D4F;}
	.st15{fill:#EA7549;}
	.st16{fill:#E9774B;}
	.st17{fill:#ED7949;}
	.st18{fill:#EC7849;}
	.st19{fill:#EE7D4C;}
	.st20{fill:#EF7C4D;}
	.st21{fill:#F1814D;}
	.st22{fill:#F38650;}
	.st23{fill:#EE7947;}
	.st24{fill:#EE7A48;}
	.st25{fill:#F17C49;}
	.st26{fill:#F27E48;}
	.st27{fill:#F37D47;}
	.st28{fill:#F4864B;}
	.st29{fill:#F47F48;}
	.st30{fill:#F5834A;}
	.st31{fill:#F58346;}
	.st32{fill:#F38149;}
	.st33{fill:#F3874D;}
	.st34{fill:#F48A4B;}
	.st35{fill:#F48649;}
	.st36{fill:#F38345;}
	.st37{fill:#F58747;}
	.st38{fill:#F48F49;}
	.st39{fill:#F38443;}
	.st40{fill:#F18142;}
	.st41{fill:#EF8242;}
	.st42{fill:#F18A47;}
	.st43{fill:#ED7F3F;}
	.st44{fill:#EC7F3E;}
	.st45{fill:#ED8340;}
	.st46{fill:#EE8441;}
	.st47{fill:#EC813F;}
	.st48{fill:#E87E3E;}
	.st49{fill:#EC8240;}
	.st50{fill:#E97D3E;}
	.st51{fill:#ED813F;}
	.st52{fill:#EF8440;}
	.st53{fill:#E97D3D;}
	.st54{fill:#E6754E;}
	.st55{fill:#DC6F4A;}
	.st56{fill:#F4854C;}
	.st57{fill:#F48746;}
</style>
<polygon class="st0" points="201.1,380.9 243.3,349 183.1,349 186.9,351.3 174,357.4 174.1,376.9 "/>
<polygon class="st1" points="186.9,351.3 182.8,349 174.1,349 174,357.4 "/>
<polygon class="st2" points="224,419.3 260,373.6 201.1,380.9 174.1,376.9 174,393.1 "/>
<polygon class="st3" points="267.8,349 243.1,349 201.1,380.9 260,373.6 "/>
<polygon class="st0" points="174.1,419.5 224.3,419.5 174,393.1 "/>
<polygon class="st4" points="174.1,436.2 224.3,419.5 174.1,419.5 "/>
<polygon class="st2" points="242.5,445 312.3,419.5 224.3,419.5 174.1,436.2 174.1,445 "/>
<polygon class="st5" points="312.3,419.5 316.3,371.7 224.3,419.5 "/>
<polygon class="st6" points="316.2,371.7 340.2,349 317.3,349 260,373.6 "/>
<polygon class="st7" points="317.3,349 267.8,349 260,373.6 "/>
<polygon class="st8" points="354.9,398.3 312.3,419.5 316.2,371.7 "/>
<polygon class="st9" points="406.5,426.8 312.3,419.5 354.9,398.3 "/>
<polygon class="st10" points="370,445 406.5,426.8 312.3,419.5 242.5,445 "/>
<path class="st11" d="M453.5,369.9c-0.4,0-53.8,5.8-53.8,5.8l-44.8,22.5l51.6,28.5L453.5,369.9z"/>
<polygon class="st12" points="404.3,349 372,349 399.8,375.8 "/>
<polygon class="st13" points="427.5,349 404.3,349 399.8,375.8 "/>
<polygon class="st14" points="477,349 427.5,349 399.8,375.8 453.5,369.9 "/>
<polygon class="st15" points="486,349 477,349 453.5,369.9 406.5,426.8 470.7,432.2 479.5,401.5 "/>
<polygon class="st16" points="504.6,445 470.7,432.2 406.5,426.8 370,445 "/>
<polygon class="st17" points="536.3,419.1 479.5,401.5 470.7,432.2 "/>
<polygon class="st18" points="522,445 536.3,419.1 470.7,432.2 504.6,445 "/>
<polygon class="st19" points="534.1,364.8 483.9,365.7 479.5,401.5 "/>
<polygon class="st20" points="504.8,349 486,349 483.9,365.7 534.1,364.8 "/>
<polygon class="st21" points="562.5,349 504.8,349 534.1,364.8 "/>
<polygon class="st22" points="589.5,363.3 596,349 562.5,349 534.1,364.8 "/>
<polygon class="st23" points="582.6,390.6 479.5,401.5 536.3,419.1 "/>
<polygon class="st23" points="603.2,418.6 536.3,419.1 522,445 575.3,445 "/>
<polygon class="st24" points="603.2,418.6 582.6,390.6 536.3,419.1 "/>
<polygon class="st24" points="589.5,363.3 534.1,364.8 479.5,401.5 582.6,390.6 "/>
<polygon class="st25" points="603.2,418.6 589.5,363.3 582.6,390.6 "/>
<polygon class="st26" points="609.6,445 603.2,418.6 575.3,445 "/>
<polygon class="st26" points="644.4,434.5 668.2,400.5 603.2,418.6 609.6,445 627,445 "/>
<polygon class="st27" points="650.7,358.9 589.5,363.3 603.2,418.6 "/>
<polygon class="st28" points="668.2,400.5 650.7,358.9 603.2,418.6 "/>
<polygon class="st29" points="678,349 637.5,349 650.7,358.9 "/>
<polygon class="st30" points="688.5,349 678,349 650.7,358.9 668.2,400.5 "/>
<polygon class="st31" points="719.1,431.3 748.7,369.1 775.2,349 688.5,349 668.2,400.5 "/>
<polygon class="st32" points="696,445 651.8,445 644.4,434.5 668.2,400.5 "/>
<polygon class="st33" points="651.8,445 627,445 644.4,434.5 "/>
<polygon class="st34" points="747.7,445 696,445 668.2,400.5 "/>
<polygon class="st35" points="741.1,421.7 721.6,430.4 719.9,429.5 748.7,369.1 "/>
<polygon class="st36" points="829.3,418.5 803.5,392.9 741.1,421.7 721.6,430.4 747.7,445 811.5,445 "/>
<polygon class="st37" points="803.5,392.9 748.7,369.1 741.1,421.7 "/>
<polygon class="st38" points="914.1,437.3 879,413.1 803.5,392.9 829.3,418.5 "/>
<polygon class="st39" points="879,413.1 882.9,355 748.7,369.1 803.5,392.9 "/>
<polygon class="st40" points="960.7,349 882,349 882.9,355 879,413.1 "/>
<polygon class="st41" points="920.2,445 811.5,445 829.3,418.5 914.1,437.3 "/>
<polygon class="st41" points="1013.3,411.4 975.4,445 920.2,445 914.1,437.3 879,413.1 956.7,352.2 "/>
<polygon class="st42" points="974.2,349 960.7,349 956.7,352.2 "/>
<polygon class="st43" points="995.1,392.4 1024.7,349 974.2,349 956.7,352.2 "/>
<polygon class="st44" points="1088.4,383.3 1055.7,358.2 1049.2,349 1024.4,349 995.1,392.4 1013.3,411.4 "/>
<polygon class="st45" points="1070.9,349 1049.2,349 1055.7,358.2 "/>
<polygon class="st46" points="1104.8,415.2 1088.3,383.3 1013.3,411.4 975.4,445 1044.7,445 "/>
<polygon class="st47" points="1084.7,445 1104.8,415.2 1044.7,445 "/>
<polygon class="st48" points="1104.7,445 1104.7,415 1084.7,445 "/>
<polygon class="st49" points="1129.5,445 1104.7,415 1104.7,445 "/>
<polygon class="st50" points="1133.9,421.9 1104.7,415 1129.5,445 1133.9,445 "/>
<polygon class="st51" points="1134,381.1 1104.7,415 1133.9,421.9 "/>
<polygon class="st52" points="1133.9,374.9 1088.3,383.3 1104.7,415 1134,381.1 "/>
<polygon class="st53" points="1133.9,349 1070.9,349 1055.7,358.2 1088.3,383.3 1133.9,374.9 "/>
<polygon class="st54" points="340.2,349 316.2,371.7 354.9,398.3 399.8,375.8 372,349 "/>
<polygon class="st55" points="260,373.6 224,419.3 224.3,419.5 316.2,371.7 "/>
<polygon class="st56" points="596,349 589.5,363.3 650.7,358.9 637.5,349 "/>
<polygon class="st57" points="775.2,349 748.7,369.1 882.9,355 882,349 "/>
</svg>
