<?xml version="1.0" encoding="utf-8"?>
<!-- Generator: Adobe Illustrator 18.1.1, SVG Export Plug-In . SVG Version: 6.00 Build 0)  -->
<!DOCTYPE svg PUBLIC "-//W3C//DTD SVG 1.1//EN" "http://www.w3.org/Graphics/SVG/1.1/DTD/svg11.dtd">
<svg version="1.1" id="Layer_1" xmlns="http://www.w3.org/2000/svg" xmlns:xlink="http://www.w3.org/1999/xlink" x="0px" y="0px"
	 viewBox="0 0 50 50" enable-background="new 0 0 50 50" xml:space="preserve">
<path fill="#ffffff" d="M39.3,30.6c-2.3,5.5-6.6,13.1-14.5,17.9C17,43.8,12.6,36.2,10.3,30.6c-2.1-5.1-2.9-9.5-3.1-10.7
	c1-0.6,1.9-0.8,3-0.8l0,0c0.8,0,1.8,0.1,2.4,0.3l0.3,0.1c0.3,0.1,0.7,0.2,1,0.2c1.2,0.3,2.4,0.7,3.4,0.7l0,0c1.1,0,2.9-0.1,4.8-0.9
	c0.6-0.2,1.2-0.4,1.9-0.6h0.7l0,0l1,0.1c0.6,0.1,1.2,0.3,1.7,0.4c2,0.7,3.6,0.8,4.8,0.8l0,0c0.7,0,1.5-0.1,2.8-0.4l0,0
	c0.4-0.1,1-0.3,1.4-0.4l0.6-0.1c0.6-0.2,1.7-0.3,2.4-0.3l0,0c1.1,0,2,0.2,3,0.8C42.2,21.1,41.4,25.5,39.3,30.6L39.3,30.6z M6.8,11.7
	l11.5,2.4c-0.1,0.2-0.2,0.3-0.3,0.6L6.8,13.3C6.8,12.7,6.8,12.2,6.8,11.7L6.8,11.7z M7.2,7.5L19.1,13c-0.2,0.2-0.4,0.6-0.7,0.9
	L6.9,10.6C6.9,9.6,7,8.5,7.2,7.5L7.2,7.5z M7.5,5.6C8,5.8,8.9,5.9,10.1,6.1l9.6,6.3c-0.1,0.1-0.2,0.2-0.3,0.3L7.4,6.3
	C7.4,6.1,7.4,5.9,7.5,5.6L7.5,5.6z M12.6,6.2c1.2,0,2.4-0.1,3.5-0.3l4.9,5.4c-0.3,0.2-0.8,0.4-1,0.8l-8.1-5.9
	C12.2,6.2,12.4,6.2,12.6,6.2L12.6,6.2z M18.8,5.2l3.2,5.6c-0.2,0.1-0.4,0.2-0.7,0.3l-4.1-5.5C17.9,5.5,18.4,5.3,18.8,5.2L18.8,5.2z
	 M23.1,3.1l1,7.3c-0.6,0-1.1,0.1-1.5,0.3l-2.8-5.9C21.2,4.3,22.3,3.7,23.1,3.1L23.1,3.1z M24.9,1.9c0.2,0.2,0.4,0.4,0.8,0.6l-0.4,8
	c-0.1,0-0.2,0-0.2,0l0,0c-0.1,0-0.2,0-0.3,0l-0.4-8C24.4,2.2,24.7,2,24.9,1.9L24.9,1.9z M26.5,3.1c1.1,0.8,2.3,1.3,3.3,1.7l-2.8,6
	c-0.6-0.1-1-0.2-1.5-0.3L26.5,3.1L26.5,3.1z M30.7,5.2c0.8,0.2,1.3,0.3,1.5,0.4l-4.1,5.5c-0.2-0.1-0.4-0.2-0.7-0.3L30.7,5.2
	L30.7,5.2z M33.5,5.9c1.2,0.2,2.4,0.3,3.8,0.3c0.1,0,0.3,0,0.4,0L29.6,12c-0.3-0.2-0.7-0.6-1-0.7L33.5,5.9L33.5,5.9z M39.6,6.1
	c1.2-0.1,2.1-0.3,2.5-0.4c0,0.2,0.1,0.4,0.1,0.7l-11.9,6.4c-0.1-0.1-0.2-0.2-0.3-0.3L39.6,6.1L39.6,6.1z M42.4,7.4
	c0.2,1.1,0.3,2.1,0.3,3.2l-11.6,3.2c-0.2-0.3-0.4-0.6-0.7-0.9L42.4,7.4L42.4,7.4z M42.9,13.3l-11.2,1.5c-0.1-0.2-0.2-0.3-0.3-0.6
	l11.5-2.5C42.9,12.3,42.9,12.7,42.9,13.3L42.9,13.3z M39.5,15.6c-0.7,0-1.9,0.1-2.7,0.3L36.3,16c-0.4,0.1-1,0.3-1.5,0.4l0,0
	c-0.7,0.2-1.7,0.4-2.4,0.4c-0.1-0.7-0.2-1.3-0.6-1.9l11-0.9c0,0.8,0,1.4-0.1,2.1C41.8,15.9,40.7,15.7,39.5,15.6L39.5,15.6z M39.5,17
	L39.5,17c-0.8,0-1.9,0.1-2.7,0.3l-0.4,0.2c-0.4,0.1-1,0.3-1.5,0.4l0.1,0.3L34.8,18c-0.8,0.2-1.8,0.4-2.5,0.4l0,0
	c-1.1,0-2.8-0.1-4.5-0.8c-0.4-0.1-1.1-0.3-1.8-0.4c-0.3-0.1-0.8-0.1-1.1-0.1c-0.2,0-0.6,0-0.8,0l0,0c-0.8,0.1-1.4,0.3-2.1,0.6
	c-1.9,0.7-3.5,0.8-4.5,0.8l0,0c-0.9,0-2.2-0.3-3.3-0.7l-1.3-0.3c-0.7-0.2-1.8-0.3-2.5-0.3l0,0c-1.1,0-2.2,0.3-3.2,0.8
	c0-0.2,0-0.4-0.1-0.7c1-0.6,2.2-0.8,3.3-0.8l0,0c0.8,0,1.8,0.1,2.4,0.3l1.3,0.3l0.1-0.3L14,17.1c1.2,0.3,2.5,0.7,3.4,0.7l0,0
	c1.1,0,2.9-0.1,4.8-0.9c0.6-0.2,1.2-0.4,1.9-0.6h0.7l1,0.1c0.7,0.1,1.2,0.3,1.7,0.4c2,0.7,3.6,0.8,4.8,0.8l0,0
	c0.7,0,1.5-0.1,2.8-0.4l0,0c0.6-0.1,1-0.3,1.5-0.4l0.6-0.1c0.6-0.2,1.7-0.3,2.4-0.3l0,0c1.1,0,2.3,0.3,3.2,0.8c0,0.2,0,0.6-0.1,0.8
	C41.7,17.4,40.6,17,39.5,17L39.5,17z M24.9,15.7L24.9,15.7L24.9,15.7c-0.2,0-0.6,0-0.8,0l0,0c-0.8,0.1-1.4,0.3-2.1,0.6
	c-1.5,0.6-3.1,0.8-4.1,0.8c0.4-3.4,3.4-6,6.9-6l0,0c3.4,0,6.4,2.5,6.9,6c-1,0-2.4-0.2-4.1-0.8c-0.4-0.1-1.1-0.3-1.8-0.4l0,0l0,0
	C25.5,15.7,25.2,15.7,24.9,15.7L24.9,15.7z M6.8,14.3l11,0.9c-0.2,0.6-0.4,1.2-0.4,1.9c-0.9,0-2.1-0.3-3.1-0.7L12.9,16
	c-0.7-0.2-1.8-0.3-2.5-0.3l0,0c-1.2,0-2.3,0.3-3.4,0.8C6.8,15.8,6.8,15,6.8,14.3L6.8,14.3z M39.5,18.5L39.5,18.5
	c-0.8,0-1.9,0.1-2.7,0.3L36.3,19c-0.4,0.1-1,0.3-1.4,0.4l0.1,0.3l-0.1-0.4c-1.1,0.3-2,0.4-2.5,0.4l0,0c-1.1,0-2.8-0.1-4.5-0.8
	c-0.6-0.2-1.1-0.3-1.8-0.4c-0.7-0.1-1.2-0.1-1.9,0c-0.8,0.1-1.4,0.3-2.1,0.6c-1.9,0.7-3.5,0.8-4.5,0.8l0,0c-0.9,0-2.2-0.3-3.3-0.7
	L14,19.6l0.1-0.3c-0.3-0.1-0.7-0.2-1-0.3l-0.3-0.1c-0.7-0.2-1.8-0.3-2.5-0.3l0,0c-1.1,0-2.1,0.2-3.1,0.8c0-0.1-0.1-0.4-0.1-0.7
	c1-0.6,2-0.8,3.1-0.8l0,0c0.8,0,1.8,0.1,2.4,0.3l1.3,0.3l0.1-0.3l-0.1,0.3c1.2,0.3,2.5,0.7,3.4,0.7l0,0c1.1,0,2.9-0.1,4.8-0.9
	c0.6-0.2,1.2-0.4,1.9-0.6h0.7l0,0l1,0.1c0.7,0.1,1.2,0.3,1.7,0.4c2,0.7,3.6,0.8,4.8,0.8l0,0c0.7,0,1.5-0.1,2.8-0.4l0,0
	c0.6-0.1,1-0.3,1.5-0.4l0.6-0.1c0.6-0.2,1.7-0.3,2.4-0.3l0,0c1.1,0,2.2,0.3,3.2,0.8c0,0.3-0.1,0.6-0.1,0.7
	C41.6,18.7,40.6,18.5,39.5,18.5L39.5,18.5z M43.5,11.5l-0.1-1.1c-0.1-1-0.2-2.1-0.3-3.2L43,6.4c-0.1-0.4-0.1-0.8-0.2-1.2l-0.1-0.3
	L42.3,5c0,0-0.6,0.1-1.4,0.3l-2.2,0.2c-0.4,0-0.9,0-1.4,0c-1.3,0-2.5-0.1-3.8-0.3l-0.8-0.1l0,0c0,0-0.7-0.1-1.5-0.4l-1-0.3
	c-1-0.4-2.2-1-3.4-1.8l-1-0.8c-0.2-0.1-0.3-0.3-0.6-0.4L24.8,1l-0.2,0.2c0,0-0.2,0.2-0.6,0.4l-1,0.8c-0.9,0.6-2,1.2-3.5,1.9l-1,0.3
	c-0.6,0.2-1,0.3-1.5,0.4l0,0L16,5.3c-1.1,0.2-2.2,0.2-3.4,0.2c-0.6,0-1.1,0-1.7-0.1L8.7,5.2C7.9,5.1,7.3,5,7.3,5L7,4.9L6.9,5.2
	c0,0.3-0.1,0.7-0.1,1l-0.2,1c-0.2,1.1-0.3,2.2-0.3,3.2l-0.1,1.1c0,0.6,0,1.1,0,1.7v1.1c0.1,3.1,0.4,5.2,0.4,5.4
	c0,0.2,0.7,5.2,3.2,11.3c2.3,5.6,6.7,13.4,14.8,18.2l0.3,0.2l0.3-0.2c8.1-4.9,12.5-12.6,14.8-18.2c2.4-6,3.1-11,3.1-11.3
	s0.4-2.3,0.4-5.3v-1.1C43.5,12.6,43.5,12,43.5,11.5L43.5,11.5z"/>
<path fill="#ffffff" d="M34.2,27c-0.1,0.1-0.2,0.1-0.3,0.1h-2.5c-0.3,0-0.6-0.2-0.6-0.6S31,26,31.3,26h0.4l0,0l0,0h0.6h1.5
	c0.3,0,0.6,0.2,0.6,0.6C34.3,26.7,34.3,26.9,34.2,27L34.2,27z M33.7,28c-0.1,0.1-0.2,0.1-0.3,0.1h-1.5c-0.2,0-0.4-0.2-0.6-0.6l0,0
	h2.5l0,0C33.8,27.7,33.7,27.8,33.7,28L33.7,28z M33.1,34.4h-1l-0.2-5.9l0,0h1.5l0,0L33.1,34.4L33.1,34.4z M33.7,35.1
	c0,0.2-0.2,0.4-0.4,0.4h-1.4v0.2v-0.2c-0.2,0-0.4-0.2-0.4-0.4s0.2-0.4,0.4-0.4h0.8h0.7C33.5,34.7,33.7,34.9,33.7,35.1L33.7,35.1z
	 M32.5,38.8c-0.2,0-0.3-0.1-0.3-0.3L32.1,36h0.9l-0.1,2.5C32.8,38.7,32.7,38.8,32.5,38.8L32.5,38.8z M30.5,24.9
	c0-0.3,0.1-0.6,0.2-0.9c0.2-0.3,0.3-0.8,0.3-1.2c0.2,0.1,0.6,0.2,0.8,0.6l0,0c-0.1,0.1-0.1,0.1-0.2,0.2c0,0-1,1-0.3,2.2h-0.1
	c-0.1,0-0.1,0-0.2,0C31,25.6,30.5,25.4,30.5,24.9L30.5,24.9z M32.7,22.8c0.1-0.1,0.1-0.3,0-0.4c0.4,0.3,0.9,1,0.9,1.7
	c0,0.9-0.6,1.5-0.8,1.8h-0.1c-0.2-0.2-0.6-0.8-0.1-1.4c0.1-0.1,0.4-0.7,0.4-0.8s0-0.2,0-0.2c-0.1,0.1-0.1,0.2-0.1,0.2
	c-0.1,0.1-0.4,0.4-0.6,0.6c-0.6,0.7-0.2,1.3,0,1.5h-0.4c-0.8-1.1,0-1.9,0.1-2c0.1-0.1,0.1-0.1,0.2-0.2
	C32.4,23.3,32.6,23.1,32.7,22.8L32.7,22.8z M33.9,23.1c0.2-0.2,0.3-0.3,0.4-0.4c-0.1,0.9,0.3,1.9,0.3,1.9c0.2,0.8-0.6,1.2-0.8,1.2
	c-0.1,0-0.1,0-0.2,0h-0.4c0.3-0.3,0.7-1,0.7-1.8C34,23.5,33.9,23.1,33.9,23.1L33.9,23.1z M34.4,26c0.4-0.2,0.9-0.8,0.7-1.7
	c0,0-0.6-1.1-0.3-2l0.1-0.3h-0.3c0,0-0.4,0.1-0.9,0.7c-0.4-0.8-1.2-1.2-1.3-1.2L31.5,21l0.4,0.8c0.1,0.1,0.3,0.6,0.2,0.9
	c0,0.1-0.1,0.2-0.2,0.3c-0.6-0.6-1.2-0.7-1.3-0.8l-0.2-0.1l0.1,0.3c0.2,0.6,0,0.9-0.1,1.2c-0.1,0.3-0.3,0.7-0.3,1.1
	c0,0.6,0.2,0.9,0.6,1.1c-0.2,0.2-0.3,0.4-0.3,0.7c0,0.3,0.2,0.7,0.4,0.8c0,0.4,0.2,0.8,0.6,0.9l0.3,6.1C31.3,34.4,31,34.7,31,35
	c0,0.4,0.3,0.8,0.7,0.8l0.1,2.5c0,0.4,0.3,0.7,0.7,0.7c0.4,0,0.7-0.3,0.7-0.7l0.1-2.5c0.4,0,0.8-0.3,0.8-0.8s-0.3-0.7-0.7-0.8
	l0.3-6.1c0.1,0,0.2-0.1,0.2-0.1c0.2-0.2,0.3-0.4,0.3-0.8c0.1,0,0.1-0.1,0.2-0.1c0.2-0.2,0.2-0.4,0.2-0.7
	C34.7,26.3,34.6,26.1,34.4,26L34.4,26z"/>
<path fill="#ffffff" d="M18.2,27.2h-2.5c-0.3,0-0.6-0.2-0.6-0.6c0-0.1,0-0.2,0.1-0.3c0.1-0.1,0.2-0.1,0.3-0.1H16l0,0l0,0h0.6h0.8
	l0,0l0,0h0.9c0.3,0,0.6,0.2,0.6,0.6C18.8,27,18.5,27.2,18.2,27.2L18.2,27.2z M18.1,28c-0.1,0.1-0.2,0.1-0.4,0.1h-1.5
	c-0.2,0-0.4-0.2-0.6-0.6l0,0h2.5l0,0C18.2,27.7,18.2,27.8,18.1,28L18.1,28z M17.5,34.4h-1l-0.2-5.9l0,0h1.5l0,0L17.5,34.4L17.5,34.4
	z M18.1,35.1c0,0.1,0,0.2-0.1,0.3c-0.1,0.1-0.2,0.1-0.3,0.1h-1.4v0.2v-0.2c-0.2,0-0.4-0.2-0.4-0.4s0.2-0.4,0.4-0.4H17h0.7
	C17.9,34.7,18.1,34.9,18.1,35.1L18.1,35.1z M17,38.8c-0.2,0-0.3-0.1-0.3-0.3L16.6,36h0.9l-0.1,2.5C17.3,38.7,17.1,38.8,17,38.8
	L17,38.8z M14.9,24.9c0-0.3,0.1-0.6,0.2-0.9c0.2-0.3,0.3-0.8,0.3-1.2c0.2,0.1,0.6,0.2,0.8,0.6l0,0c-0.1,0.1-0.1,0.1-0.1,0.2
	c0,0-1,1-0.3,2.2h-0.1c-0.1,0-0.1,0-0.2,0C15.5,25.7,14.9,25.5,14.9,24.9L14.9,24.9z M17.1,22.8c0.1-0.1,0.1-0.3,0-0.4
	c0.4,0.3,0.9,1,0.9,1.7c0,0.9-0.6,1.5-0.8,1.8h-0.1c-0.2-0.2-0.6-0.8-0.1-1.4c0.1-0.1,0.4-0.7,0.4-0.8s0-0.2,0-0.2
	c0,0.1-0.1,0.2-0.1,0.2c-0.1,0.1-0.4,0.4-0.6,0.6c-0.6,0.7-0.2,1.3,0,1.5h-0.4c-0.8-1.1,0.1-1.9,0.1-2c0.1-0.1,0.1-0.1,0.2-0.2
	S17,23.1,17.1,22.8L17.1,22.8z M18.4,23.1c0.2-0.2,0.3-0.3,0.4-0.4c-0.1,0.9,0.3,1.9,0.3,1.9c0.2,0.8-0.6,1.2-0.8,1.2
	c-0.1,0-0.1,0-0.2,0h-0.4c0.3-0.3,0.7-1,0.7-1.8C18.5,23.5,18.4,23.1,18.4,23.1L18.4,23.1z M18.8,26c0.4-0.2,0.9-0.8,0.7-1.7
	c0,0-0.6-1.1-0.3-2l0.1-0.3h-0.3c0,0-0.4,0.1-0.9,0.7c-0.4-0.8-1.2-1.2-1.3-1.2L16,21l0.4,0.8c0.1,0.1,0.3,0.6,0.2,0.9
	c0,0.1-0.1,0.2-0.2,0.3c-0.6-0.6-1.2-0.7-1.3-0.8l-0.2-0.1l0.1,0.3c0.2,0.6,0,0.9-0.1,1.2c-0.1,0.3-0.3,0.7-0.3,1.1
	c0,0.6,0.3,0.9,0.6,1.1l0,0c-0.2,0.3-0.3,0.6-0.3,0.8c0,0.3,0.2,0.7,0.4,0.8c0,0.4,0.2,0.8,0.6,0.9l0.2,6.1
	c-0.3,0.1-0.7,0.4-0.7,0.8c0,0.4,0.3,0.8,0.7,0.8l0.1,2.5c0,0.4,0.3,0.7,0.7,0.7c0.4,0,0.7-0.3,0.7-0.7l0.1-2.5
	c0.2,0,0.3-0.1,0.6-0.2c0.1-0.1,0.2-0.3,0.2-0.6c0-0.4-0.3-0.7-0.7-0.8l0.2-6c0.1,0,0.2-0.1,0.2-0.1c0.2-0.2,0.2-0.4,0.3-0.8
	c0.3-0.1,0.4-0.4,0.4-0.8C19.1,26.4,19,26.1,18.8,26L18.8,26z"/>
<path fill="#ffffff" d="M27.2,28.2c-0.1,0.1-0.3,0.2-0.6,0.2h-3.5c-0.4,0-0.8-0.3-0.8-0.8c0-0.4,0.3-0.8,0.8-0.8h2.3h1.2
	c0.4,0,0.8,0.3,0.8,0.8C27.4,27.8,27.3,28,27.2,28.2L27.2,28.2z M25.9,29.5h-2.1l0,0c-0.3,0-0.7-0.3-0.8-0.8h0.1h3.5h0.1
	C26.5,29.2,26.2,29.5,25.9,29.5L25.9,29.5z M25.6,38.5h-1.5l-0.4-8.5h0.1l0,0h2.1H26L25.6,38.5L25.6,38.5z M26.5,39.6
	c0,0.3-0.3,0.7-0.7,0.7h-2c-0.3,0-0.7-0.3-0.7-0.7s0.3-0.7,0.7-0.7h1.5H26C26.2,38.8,26.5,39.1,26.5,39.6L26.5,39.6z M25.3,44.2
	c0,0.1,0,0.2-0.1,0.3s-0.2,0.1-0.3,0.1l0,0c-0.1,0-0.2,0-0.3-0.1c-0.1-0.1-0.1-0.2-0.1-0.3l-0.1-3.5h1.3L25.3,44.2L25.3,44.2z
	 M22,25.1c0-0.4,0.2-0.9,0.4-1.3c0.2-0.6,0.6-1.1,0.3-1.8c0.3,0.1,0.9,0.3,1.2,0.8l-0.1,0.1c-0.1,0.2-0.2,0.2-0.3,0.3
	c0,0-1.4,1.4-0.3,3.1H23c-0.1,0-0.2,0-0.3,0C22.7,26.4,22,26.1,22,25.1L22,25.1z M24.9,22.1c0.1-0.3,0.1-0.7,0-0.9
	c0.7,0.4,1.5,1.4,1.5,2.7c0,1.3-0.8,2.3-1.1,2.5h-0.1c-0.1-0.2-0.3-0.7-0.3-1.1c0-0.9,0.4-1.3,0.4-1.3s-0.6,0.3-0.7,1.2
	c0,0.3,0,0.8,0.3,1.3h-0.6c-0.2-0.3-0.8-1.1-0.2-2c0.1-0.2,0.7-0.9,0.7-1c0.1-0.1,0.1-0.3,0.1-0.3c-0.1,0.1-0.2,0.2-0.2,0.2
	c-0.1,0.1-0.6,0.7-0.8,0.8c-0.8,1-0.1,2.1,0,2.3l-0.2-0.1c-1.2-1.5,0.1-2.8,0.1-2.9c0.1-0.1,0.1-0.2,0.2-0.2
	C24.4,22.9,24.7,22.7,24.9,22.1L24.9,22.1z M27.4,22.3c-0.2,1.2,0.1,2.2,0.2,2.3c0.3,1.1-0.4,1.7-0.8,1.9c-0.1,0-0.1,0-0.2,0h-0.8
	c0.4-0.6,1-1.4,1-2.5c0-0.3-0.1-0.6-0.1-0.9C27,22.5,27.2,22.4,27.4,22.3L27.4,22.3z M27.3,26.5c0.4-0.3,1-1,0.7-2.1
	c0,0-0.4-1.1-0.1-2.4l0.1-0.3h-0.3c0,0-0.6,0.1-1.2,0.8c-0.6-1.2-1.9-2-2-2.1l-0.7-0.4l0.3,0.7c0,0,0.4,0.8,0.2,1.2
	c-0.1,0.2-0.2,0.4-0.3,0.6c-0.7-0.8-1.8-1-1.8-1l-0.3-0.1l0.1,0.3c0.3,0.8,0.1,1.2-0.2,1.9c-0.2,0.4-0.4,0.9-0.4,1.4
	c0,0.8,0.4,1.3,0.8,1.5c-0.3,0.2-0.4,0.6-0.4,1s0.3,0.9,0.7,1.1c0.1,0.4,0.3,0.9,0.8,1.1l0,0l0.4,8.6c-0.6,0.1-0.9,0.6-0.9,1.1
	s0.4,1,1,1.1l0.2,3.5c0,0.2,0.1,0.4,0.2,0.7c0.2,0.2,0.4,0.2,0.7,0.2l0,0c0.2,0,0.4-0.1,0.7-0.2c0.2-0.2,0.2-0.4,0.2-0.7l0.1-3.5
	c0.6,0,1-0.4,1-1.1c0-0.6-0.4-1-0.9-1.1l0.4-8.6l0,0c0.4-0.2,0.7-0.7,0.8-1.1c0.1-0.1,0.2-0.1,0.3-0.2c0.2-0.2,0.3-0.6,0.3-0.9
	C27.7,27.2,27.6,26.7,27.3,26.5L27.3,26.5z"/>
</svg>
