<?xml version="1.0" encoding="utf-8"?>
<!-- Generator: Adobe Illustrator 19.1.0, SVG Export Plug-In . SVG Version: 6.00 Build 0)  -->
<svg version="1.1" id="Layer_1" xmlns="http://www.w3.org/2000/svg" xmlns:xlink="http://www.w3.org/1999/xlink" x="0px" y="0px"
	 viewBox="0 0 187.4 90.8" style="enable-background:new 0 0 187.4 90.8;" xml:space="preserve">
<style type="text/css">
	.st0{fill:#ECAC9A;}
	.st1{fill:#FBEEE8;}
</style>
<g>
	<path class="st0" d="M11.2,11.1c0-1.4-0.3-2.1-1.4-2.1H7.9C7.7,9,7.6,8.9,7.6,8.6v-1c0-0.2,0.1-0.3,0.4-0.3c0.4,0,2.4,0.2,6.5,0.2
		c3.5,0,5.5-0.2,6.1-0.2c0.2,0,0.3,0.1,0.3,0.3v1c0,0.2-0.1,0.3-0.3,0.3h-1.8c-1.3,0-2,0.7-2.1,1.6c0,0.5-0.2,3-0.2,5.4v5.2
		c0,2.1,0.1,5.1,0.2,6.4c0.2,1.9,0.5,3.8,1.4,5.2c1.4,1.9,3.7,2.6,5.7,2.6c1.9,0,4.3-0.7,5.6-2c1.6-1.6,2.4-4,2.4-7.1v-7.5
		c0-3.4-0.3-7-0.5-8c-0.2-1.1-0.8-1.8-1.8-1.8H28c-0.2,0-0.3-0.2-0.3-0.3v-1c0-0.2,0.1-0.3,0.3-0.3c0.4,0,2.3,0.2,5.1,0.2
		c2.6,0,3.9-0.2,4.3-0.2s0.4,0.2,0.4,0.3v1c0,0.2-0.1,0.4-0.2,0.4h-1.5c-1.5,0-1.7,1.2-1.8,1.6c-0.1,0.5-0.1,6.4-0.1,7
		s-0.1,7.9-0.2,9.6c-0.2,3.4-1.3,6.1-3.5,8.1c-1.8,1.6-4.5,2.6-7.7,2.6c-2,0-4.5-0.3-6.1-1c-2.4-1-4.1-3-5-5.6
		c-0.6-1.8-0.7-4.6-0.7-10.1V11.1H11.2z"/>
	<path class="st0" d="M39.3,27.8c0.2,0,0.2,0.1,0.2,0.3c0.1,1.4,0.4,3,1.6,4.8c1.3,2,3.4,3,5.5,3c2.2,0,5.4-1.4,5.4-4.9
		c0-3.8-1.8-5.1-6.2-6.8c-1.4-0.5-4.1-1.7-6.2-3.5c-1.4-1.4-2.1-3.4-2.1-6c0-2.3,1-4.3,3-5.8c1.7-1.4,3.5-2,6-2c2.8,0,4.5,0.6,5.3,1
		c0.4,0.2,0.6,0.1,0.9-0.2l0.6-0.6c0.2-0.2,0.3-0.2,0.6-0.2c0.2,0,0.3,0.2,0.3,0.6c0,0.6,0.6,6.6,0.6,7c0,0.2-0.1,0.2-0.2,0.3L54,15
		c-0.2,0.1-0.3,0-0.4-0.2c-0.4-1.2-1.1-2.9-2.6-4.5c-1.1-1.2-2.4-1.8-4.4-1.8c-3.4,0-4.7,2.7-4.7,4.2c0,1.4,0.2,2.7,1.2,3.8
		c1.1,1.1,3.4,2.1,5.1,2.6c2.4,0.7,4.5,1.6,6.1,3.3c1.4,1.4,2.1,3.2,2.1,6c0,5.1-3.4,9.4-8.9,9.4c-3.4,0-5.4-0.7-7.1-2
		c-0.5-0.3-0.7-0.5-1-0.5c-0.2,0-0.4,0.3-0.6,0.7c-0.2,0.4-0.4,0.5-0.7,0.5s-0.5-0.2-0.5-0.6c0.1-0.5,0.6-7.3,0.7-7.8
		c0.1-0.2,0.1-0.3,0.2-0.3H39.3L39.3,27.8z"/>
	<path class="st0" d="M85,30.3c0.2,0.2,0.2,0.2,0.1,0.4c-2.5,3.6-6.6,7-12.5,7c-5.4,0-8.4-1.6-11-3.9C58.5,31,57,26.1,57,22.4
		c0-4.1,1.4-8.1,4.3-11.3c2.2-2.4,5.9-4.5,10.9-4.5c3.8,0,7,1.2,8.5,2c0.6,0.3,0.7,0.3,0.9,0l0.3-1.1c0.1-0.2,0.2-0.2,0.6-0.2
		c0.5,0,0.6,0.1,0.6,0.6c0,0.7,0.9,7.4,1,8.7c0.1,0.2,0,0.4-0.2,0.4l-0.8,0.2c-0.2,0.1-0.3-0.1-0.5-0.4c-0.5-1.5-1.5-3.6-3.3-5.4
		s-4-3.1-7.3-3.1c-6.7,0-9.5,6.1-9.5,12.1c0,2.6,0.7,7.5,3.8,10.9c2.8,3,5.2,3.3,7.2,3.3c4.6,0,8.2-2.3,10-4.9
		c0.2-0.3,0.4-0.4,0.5-0.3L85,30.3L85,30.3z"/>
	<path class="st1" d="M17.2,61.9c-0.4,1-2.7,7.4-2.9,8.2c-0.1,0.3-0.2,0.7-0.2,0.9c0,0.6,0.5,0.9,1.4,0.9h1.9c0.3,0,0.4,0.1,0.4,0.3
		v1c0,0.3-0.2,0.4-0.3,0.4c-0.6,0-2.3-0.2-4.7-0.2c-3,0-3.9,0.2-4.6,0.2c-0.2,0-0.3-0.1-0.3-0.3v-1c0-0.2,0.2-0.3,0.3-0.3h1.4
		c1.3,0,1.8-0.6,2.4-1.9c0.3-0.6,3.3-8.3,4.6-11.8c0.3-0.8,3.7-9.8,4-10.9c0.2-0.4,0.3-1,0.1-1.4c-0.2-0.2-0.3-0.4-0.3-0.6
		s0.1-0.3,0.4-0.4c1.2-0.2,3-1.5,3.4-2.1c0.2-0.2,0.3-0.4,0.6-0.4c0.2,0,0.3,0.2,0.5,0.7c0.8,2.6,4,11.9,4.8,14.6
		c1,3.2,3.7,11,4.2,12.2c0.7,1.4,1.8,1.8,2.8,1.8h1.4c0.2,0,0.3,0.2,0.3,0.3v1c0,0.2-0.2,0.3-0.4,0.3c-0.7,0-1.6-0.2-5-0.2
		s-4.9,0.2-5.8,0.2c-0.2,0-0.3-0.2-0.3-0.4v-1c0-0.2,0.2-0.3,0.4-0.3h1c1.2,0,1.5-0.4,1.3-1.6c-0.3-1.5-2-6.8-2.6-8.5H17.2
		L17.2,61.9L17.2,61.9z M26.9,60.4c-0.4-1.3-3.8-11.6-3.9-12.2c-0.2-0.3-0.2-0.6-0.3-0.6c-0.2,0-0.3,0.3-0.5,0.6
		C22,48.8,18,59.4,17.8,60.4H26.9L26.9,60.4z"/>
	<path class="st1" d="M55.7,71.2c0,0.6,0.4,0.9,0.9,0.9H58c0.4,0,0.5,0.2,0.5,0.4v0.6c0,0.3-0.1,0.5-0.3,0.5c-0.3,0-1.6-0.2-3.9-0.2
		c-2.1,0-3.4,0.2-3.8,0.2c-0.2,0-0.3-0.2-0.3-0.5v-0.6c0-0.3,0.2-0.4,0.6-0.4H52c0.5,0,0.8-0.2,0.8-1c0-1.1,0.1-2.4,0.1-3.5v-5.5
		c0-1.7,0-2.9-1.2-3.8c-1-0.7-2-0.7-3-0.7c-0.6,0-2.1,0.3-3.4,1.6c-0.8,0.9-1,2-1,2.8v8.6c0,1.1,0.2,1.4,1,1.4h1
		c0.3,0,0.4,0.2,0.4,0.4v0.7c0,0.2-0.1,0.4-0.3,0.4c-0.3,0-1.4-0.2-3.6-0.2c-2.1,0-3.4,0.2-3.7,0.2c-0.2,0-0.3-0.2-0.3-0.4v-0.6
		c0-0.2,0.1-0.4,0.4-0.4h1.2c0.6,0,0.8-0.2,0.8-0.8v-9.7c0-1.3-0.6-1.9-1.7-2.5l-0.3-0.2c-0.3-0.2-0.3-0.2-0.3-0.4v-0.2
		c0-0.2,0.2-0.3,0.4-0.4l3.6-2c0.3-0.2,0.6-0.3,0.7-0.3c0.2,0,0.3,0.2,0.3,0.5l0.3,2.6h0.1c1.2-1.5,3.6-3,5.7-3
		c1.3,0,2.6,0.2,3.5,0.9c1.3,0.8,2.3,2.9,2.3,3.9L55.7,71.2L55.7,71.2z"/>
	<path class="st1" d="M75.3,71.2c0,0.6,0.4,0.9,0.9,0.9h1.4c0.4,0,0.5,0.2,0.5,0.4v0.6c0,0.3-0.1,0.5-0.3,0.5
		c-0.3,0-1.6-0.2-3.9-0.2c-2.1,0-3.4,0.2-3.8,0.2c-0.2,0-0.3-0.2-0.3-0.5v-0.6c0-0.3,0.2-0.4,0.6-0.4h1.2c0.5,0,0.8-0.2,0.8-1
		c0.1-1,0.1-2.4,0.1-3.5v-5.5c0-1.7,0-2.9-1.2-3.8c-1-0.7-2-0.7-3-0.7c-0.6,0-2.1,0.3-3.4,1.6c-0.8,0.9-1,2-1,2.8v8.6
		c0,1.1,0.2,1.4,1,1.4h1c0.3,0,0.4,0.2,0.4,0.4v0.7c0,0.2-0.1,0.4-0.3,0.4c-0.3,0-1.4-0.2-3.6-0.2c-2.1,0-3.4,0.2-3.7,0.2
		c-0.2,0-0.3-0.2-0.3-0.4v-0.6c0-0.2,0.1-0.4,0.4-0.4H60c0.6,0,0.8-0.2,0.8-0.8v-9.7c0-1.3-0.6-1.9-1.7-2.5l-0.3-0.2
		c-0.3-0.2-0.3-0.2-0.3-0.4v-0.2c0-0.2,0.2-0.3,0.4-0.4l3.6-2c0.3-0.2,0.6-0.3,0.7-0.3c0.2,0,0.3,0.2,0.3,0.5l0.3,2.6h0.1
		c1.2-1.5,3.6-3,5.7-3c1.3,0,2.6,0.2,3.5,0.9c1.3,0.8,2.3,2.9,2.3,3.9L75.3,71.2L75.3,71.2z"/>
	<path class="st1" d="M81,62.4c-0.1,0.4-0.2,1-0.2,2c0,4.1,2.6,7.1,5.9,7.1c2.6,0,4.3-1.4,5-2.8c0.1-0.2,0.2-0.2,0.4-0.2l0.6,0.3
		c0.2,0,0.2,0.2,0,0.6C92,71.1,89.8,74,86.1,74c-2.4,0-5-0.7-6.5-3c-1.4-2.1-1.8-3.7-1.8-6.6c0-1.6,0.4-4.4,2.6-6.6
		c1.8-1.8,3.8-2.2,5.9-2.2c4.8,0,6.1,4.5,6.1,6.1c0,0.6-0.5,0.6-1.2,0.6H81V62.4z M87.7,61.2c0.8,0,1.1-0.2,1.1-0.6
		c0-1-0.5-3.7-3.2-3.7c-1.8,0-3.6,1.2-4.3,4.2L87.7,61.2L87.7,61.2z"/>
	<path class="st1" d="M110.9,71.2c0,0.6,0.4,0.9,0.9,0.9h1.4c0.4,0,0.5,0.2,0.5,0.4v0.6c0,0.3-0.1,0.5-0.3,0.5
		c-0.3,0-1.6-0.2-3.9-0.2c-2.1,0-3.4,0.2-3.8,0.2c-0.2,0-0.3-0.2-0.3-0.5v-0.6c0-0.3,0.2-0.4,0.6-0.4h1.2c0.5,0,0.8-0.2,0.8-1
		c0.1-1,0.1-2.4,0.1-3.5v-5.5c0-1.7,0-2.9-1.2-3.8c-1-0.7-2-0.7-3-0.7c-0.6,0-2.1,0.3-3.4,1.6c-0.8,0.9-1,2-1,2.8v8.6
		c0,1.1,0.2,1.4,1,1.4h1c0.3,0,0.4,0.2,0.4,0.4v0.7c0,0.2-0.1,0.4-0.3,0.4c-0.3,0-1.4-0.2-3.6-0.2c-2.1,0-3.4,0.2-3.7,0.2
		S94,73.3,94,73.1v-0.6c0-0.2,0.1-0.4,0.4-0.4h1.2c0.6,0,0.8-0.2,0.8-0.8v-9.7c0-1.2-0.6-1.9-1.7-2.5l-0.3-0.2
		c-0.3-0.2-0.3-0.2-0.3-0.4v-0.2c0-0.2,0.2-0.3,0.4-0.4l3.6-2c0.3-0.2,0.6-0.3,0.7-0.3c0.2,0,0.3,0.2,0.3,0.5l0.3,2.6h0.1
		c1.2-1.5,3.6-3,5.7-3c1.3,0,2.6,0.2,3.5,0.9c1.3,0.8,2.3,2.9,2.3,3.9L110.9,71.2L110.9,71.2z"/>
	<path class="st1" d="M114.9,51.1c0-2.8-0.5-3.4-1.9-3.8l-0.4-0.2c-0.5-0.2-0.6-0.2-0.6-0.3v-0.3c0-0.2,0.1-0.2,0.3-0.3
		c1.2-0.6,3.4-1.6,4.4-2.3c0.3-0.2,0.6-0.4,0.9-0.4s0.4,0.2,0.3,0.7c-0.1,0.3-0.1,5-0.1,8.7v4.8c1.4-1.3,3.7-2.1,5.8-2.1
		c3.7,0,7.6,3,7.6,8.9c0,4.9-3.9,9.4-8.6,9.4c-2.3,0-3.9-0.5-4.9-1l-1.7,0.9c-0.2,0.2-0.3,0.2-0.6,0.2l-0.5-0.2
		c-0.2-0.1-0.2-0.2-0.2-0.3c0.1-0.6,0.1-4,0.1-7V51.1H114.9z M117.9,64.5c0,3.4,0.2,4.7,0.6,6c0.4,1,2.2,2.1,3.9,2.1
		c2.5,0,5.5-1.7,5.5-7.1c0-4-2.1-7.8-6.2-7.8c-1.5,0-3,0.6-3.9,1.5v5.3H117.9z"/>
	<path class="st1" d="M136,62.4c-0.1,0.4-0.2,1-0.2,2c0,4.1,2.6,7.1,5.9,7.1c2.6,0,4.3-1.4,5-2.8c0.1-0.2,0.2-0.2,0.4-0.2l0.6,0.3
		c0.2,0.1,0.2,0.2,0,0.6c-0.7,1.7-2.9,4.6-6.6,4.6c-2.4,0-5-0.7-6.5-3c-1.4-2.1-1.8-3.7-1.8-6.6c0-1.6,0.4-4.4,2.6-6.6
		c1.8-1.8,3.8-2.2,5.9-2.2c4.8,0,6.1,4.5,6.1,6.1c0,0.6-0.5,0.6-1.2,0.6L136,62.4L136,62.4z M142.5,61.2c0.8,0,1.1-0.2,1.1-0.6
		c0-1-0.5-3.7-3.2-3.7c-1.8,0-3.6,1.2-4.3,4.2L142.5,61.2L142.5,61.2z"/>
	<path class="st1" d="M151.2,62.4c0-2.1-0.3-2.6-1.5-3.1l-0.8-0.4c-0.2-0.1-0.3-0.2-0.3-0.3v-0.2c0-0.2,0.1-0.2,0.3-0.4l4.1-2.1
		c0.2-0.2,0.4-0.2,0.6-0.2s0.3,0.2,0.3,0.5l0.2,2.9h0.2c1.3-1.9,3.2-3.6,5-3.6c1.4,0,2.1,0.9,2.1,1.8c0,1.2-1,2-1.8,2
		c-0.5,0-0.9-0.2-1.2-0.3c-0.3-0.2-0.8-0.3-1.4-0.3s-1.8,0.4-2.5,1.8c-0.2,0.5-0.4,1.2-0.4,1.4v8.7c0,1.3,0.3,1.7,1.2,1.7h1.9
		c0.2,0,0.3,0.2,0.3,0.4v0.7c0,0.2-0.1,0.4-0.2,0.4c-0.2,0-2.2-0.2-4.4-0.2c-2.6,0-4.3,0.2-4.6,0.2c-0.2,0-0.2-0.1-0.2-0.4v-0.8
		c0-0.3,0.1-0.4,0.5-0.4h1.6c0.6,0,0.9-0.2,0.9-0.8c0.1-1.4,0.1-2.8,0.1-5L151.2,62.4L151.2,62.4z"/>
	<path class="st1" d="M162.2,83.4c-1.5-0.9-2.1-2-2.1-3.4c0-2.3,2.4-4.1,4.3-5v-0.2c-1.8-0.4-2.8-1.7-2.8-2.9c0-2,2.3-3.4,3.8-3.9
		v-0.1c-1.6-0.7-3.8-2.6-3.8-6.3c0-2.7,2.4-6,7.1-6c3.1,0,4.8,1.9,5.2,2.4c1.1-0.8,2.6-1.6,3.9-1.6s2,0.9,1.9,1.8
		c0,0.8-0.6,1.5-1.6,1.5c-0.7,0-1.1-0.3-1.4-0.6c-0.2-0.2-0.6-0.4-0.9-0.4s-0.8,0-1.4,0.2c0.3,0.8,0.6,1.8,0.6,3.1
		c0,1.6-0.5,3.2-1.5,4.5c-1,1.2-3.4,2.1-4.8,2.1c-0.9,0-1.5-0.1-2.1-0.2c-0.8,0.3-2.2,1.2-2.2,2.3c0,1.7,2.1,1.6,4.9,1.4
		c3.4-0.2,5.4,0.2,7.1,1.5c1.8,1.4,2,3,2,4c0,1.9-0.7,3.6-2.8,5.1c-1.1,0.8-3.6,1.9-7.1,1.9C166.5,84.7,164.2,84.5,162.2,83.4
		 M175.9,79.1c0-2.5-1.8-4.3-6-4l-4,0.3c-1.3,0.3-3.3,1.8-3.3,4c0,1,0.8,2.3,1.6,2.9c1.4,1,2.9,1.2,5.8,1.2
		C171.6,83.4,176.1,82.3,175.9,79.1 M172.1,61.4c0-1.8-0.4-2.9-1.1-3.8c-0.6-0.6-1.4-0.9-2-0.9c-1,0-1.9,0.2-3,1.2
		c-1.4,1.4-1.5,3.3-1.5,4.9c0,1.4,0.5,2.7,1.4,3.6c0.7,0.7,1.5,1,2.5,1C171.1,67.5,172.1,64,172.1,61.4"/>
</g>
</svg>
